<?xml version="1.0" encoding="UTF-8" standalone="no"?>
<!-- Created with Inkscape (http://www.inkscape.org/) -->

<svg
   xmlns:dc="http://purl.org/dc/elements/1.1/"
   xmlns:cc="http://creativecommons.org/ns#"
   xmlns:rdf="http://www.w3.org/1999/02/22-rdf-syntax-ns#"
   xmlns:svg="http://www.w3.org/2000/svg"
   xmlns="http://www.w3.org/2000/svg"
   xmlns:sodipodi="http://sodipodi.sourceforge.net/DTD/sodipodi-0.dtd"
   xmlns:inkscape="http://www.inkscape.org/namespaces/inkscape"
   id="svg2"
   version="1.1"
   inkscape:version="0.91 r13725"
   xml:space="preserve"
   width="1000"
   height="1000"
   viewBox="0 0 1000 1000"
   sodipodi:docname="5.svg"><metadata
     id="metadata8"><rdf:RDF><cc:Work
         rdf:about=""><dc:format>image/svg+xml</dc:format><dc:type
           rdf:resource="http://purl.org/dc/dcmitype/StillImage" /><dc:title></dc:title></cc:Work></rdf:RDF></metadata><defs
     id="defs6"><clipPath
       clipPathUnits="userSpaceOnUse"
       id="clipPath16"><path
         d="m 274.631,350.482 c 0.464,-8.286 -1.208,-16.557 -3.388,-24.503 l 0,0 c -0.519,-1.889 -1.087,-3.765 -1.695,-5.629 l 0,0 c -1.73,-5.312 -3.788,-10.524 -5.991,-15.645 l 0,0 c -2.3,-5.349 -3.577,-10.464 -1.921,-16.153 l 0,0 c 0.037,-0.126 0.088,-0.237 0.144,-0.338 l 0,0 c 0.002,-0.003 0.002,-0.007 0.004,-0.011 l 0,0 c 3.639,-8.56 13.587,-12.862 22.33,-11.156 l 0,0 c 0.207,0.04 -9.239,9.641 -8.801,18.265 l 0,0 c 0.437,8.625 3.999,15.938 12.187,20.438 l 0,0 c -1.679,-5.333 3.286,-21.38 0.937,-26.5 l 0,0 c 3.086,-0.731 8.066,0.374 12.813,10.626 l 0,0 c 12.937,-16.064 -7.143,-22.575 -7.125,-22.626 l 0,0 c 7.727,-0.875 10.2,0.236 15.53,0.909 l 0,0 c 8.964,1.134 16.259,7.923 18.594,16.511 l 0,0 c 0.18,0.663 0.313,1.326 0.437,1.989 l 0,0 c 2.26,12.114 -4.39,24.249 -1.894,36.466 l 0,0 c -5.667,-0.25 -10.377,-7.729 -15.275,-10.951 l 0,0 c -0.043,-0.029 -0.086,-0.056 -0.129,-0.084 l 0,0 c 2.339,5.382 3.927,10.792 3.699,16.994 l 0,0 c -0.353,9.61 -5.966,18.652 -10.293,26.92 l 0,0 c -2.857,-5.817 -5.323,-21.435 -11.05,-30.111 l 0,0 c -0.792,7.109 -1.3,14.009 -5.085,20.419 l 0,0 c -4.074,6.899 -10.784,14.501 -18.283,16.726 l 0,0 c 2.958,-7.871 3.82,-14.749 4.255,-22.556"
         id="path18"
         inkscape:connector-curvature="0" /></clipPath><linearGradient
       x1="0"
       y1="0"
       x2="1"
       y2="0"
       gradientUnits="userSpaceOnUse"
       gradientTransform="matrix(-4.2e-6,96.359375,96.359375,4.2e-6,295.02393,276.67871)"
       spreadMethod="pad"
       id="linearGradient24"><stop
         style="stop-opacity:1;stop-color:#f24800"
         offset="0"
         id="stop26" /><stop
         style="stop-opacity:1;stop-color:#ffcf00"
         offset="1"
         id="stop28" /></linearGradient><clipPath
       clipPathUnits="userSpaceOnUse"
       id="clipPath36"><path
         d="m 266.666,146.083 c -3.762,1.628 -5.749,3.666 -11.953,13.321 l 0,0 c -4.106,-12.327 -2.805,-42.923 4.354,-53.863 l 0,0 c 6.612,-8.897 9.683,-15.041 30.6,-17.795 l 0,0 C 281,98.833 279.454,113.917 281.83,125.78 l 0,0 c 1.091,5.451 2.838,10.843 4.798,16.077 l 0,0 c 3.426,-5.355 13.372,-13.108 7.637,-32.959 l 0,0 c 7.927,0.672 13.96,7.176 17.935,13.946 l 0,0 c 0.675,-4.721 0.821,-9.592 -0.081,-14.227 l 0,0 C 310.715,101.4 300.723,89.121 301.452,88.849 l 0,0 c 12.296,-4.61 24.377,7.311 29.804,17.13 l 0,0 c 6.018,10.888 9.758,35.823 6.418,37.588 l 0,0 c -1.257,-4.568 -8.288,-7.127 -11.977,-10.248 l 0,0 c 0.921,4.194 0.813,8.331 -0.298,12.759 l 0,0 c -1.558,6.202 -3.649,13.005 -6.423,17.98 l 0,0 c -1.476,-6.392 -10.374,-16.409 -17.204,-21.369 l 0,0 c 2.305,5.776 5.228,14.81 6.061,22.644 l 0,0 c 1.172,11.015 -10.666,40.167 -22.333,44.727 l 0,0 c 3.75,-18.56 -15.071,-65.605 -18.834,-63.977"
         id="path38"
         inkscape:connector-curvature="0" /></clipPath><linearGradient
       x1="0"
       y1="0"
       x2="1"
       y2="0"
       gradientUnits="userSpaceOnUse"
       gradientTransform="matrix(-5.3e-6,122.31348,122.31348,5.3e-6,295.66309,87.746094)"
       spreadMethod="pad"
       id="linearGradient44"><stop
         style="stop-opacity:1;stop-color:#f24800"
         offset="0"
         id="stop46" /><stop
         style="stop-opacity:1;stop-color:#ffcf00"
         offset="1"
         id="stop48" /></linearGradient><clipPath
       clipPathUnits="userSpaceOnUse"
       id="clipPath56"><path
         d="m 655.356,155.465 c -5.099,-10.263 -11.813,-19.763 -14.592,-31.029 l 0,0 c -1.941,-7.869 -1.749,-17.066 5.684,-22.067 l 0,0 c 7.996,-5.382 15.472,-6.828 25.099,-6.45 l 0,0 c 12.882,1.104 23.637,10.115 23.758,23.5 l 0,0 c 0.001,0.184 -0.005,0.367 -0.005,0.55 l 0,0 c -0.003,10.488 -2.779,21.372 -5.597,31.4 l 0,0 c -1.536,-6.536 -3.623,-10.264 -5.556,-14.709 l 0,0 c -1.781,-4.093 -7.769,-8.231 -10.035,-1.857 l 0,0 c -1.237,3.478 -0.549,7.834 -0.138,11.412 l 0,0 c 2.146,18.634 2.911,40.044 -12.03,50.081 l 0,0 c 2.223,-12.129 -0.227,-28.026 -6.588,-40.831"
         id="path58"
         inkscape:connector-curvature="0" /></clipPath><linearGradient
       x1="0"
       y1="0"
       x2="1"
       y2="0"
       gradientUnits="userSpaceOnUse"
       gradientTransform="matrix(-4.4e-6,100.43359,100.43359,4.4e-6,667.51367,95.862305)"
       spreadMethod="pad"
       id="linearGradient64"><stop
         style="stop-opacity:1;stop-color:#f24800"
         offset="0"
         id="stop66" /><stop
         style="stop-opacity:1;stop-color:#ffcf00"
         offset="1"
         id="stop68" /></linearGradient><clipPath
       clipPathUnits="userSpaceOnUse"
       id="clipPath76"><path
         d="m 480,509.75 c -3.902,14.775 -21.333,20.916 -27.102,22.15 l 0,0 c 3.524,-11.045 21.653,-28.775 12.466,-40.343 l 0,0 C 460,494.75 450.75,498 444.888,526.322 l 0,0 c -0.447,-1.009 -0.869,-2.029 -1.282,-3.055 l 0,0 c -4.715,-11.757 -7.108,-24.537 -8.779,-37.015 l 0,0 c -1.919,-14.325 -2.666,-29.379 9.123,-39.773 l 0,0 c 0.09,-0.08 0.184,-0.145 0.277,-0.198 l 0,0 c 7.12,-5.34 18.352,-6.55 26.877,-8.043 l 0,0 c 1.094,-0.192 1.961,0.814 1.829,1.71 l 0,0 c -0.002,0.017 0.001,0.034 -0.002,0.05 l 0,0 c -0.067,0.347 -0.275,0.674 -0.705,0.902 l 0,0 c -9.298,4.957 -21.351,16.475 -15.219,30.994 l 0,0 c 3.959,-6.117 10.863,-13.946 18.272,-13.606 l 0,0 c 0.711,0.032 1.563,0.643 1.457,1.456 l 0,0 c -1.344,10.187 -4.963,18.918 0.191,28.029 l 0,0 c 0.772,-7.079 1.74,-15.732 8.28,-19.065 l 0,0 c 6.029,-3.072 9.442,2.473 12.033,7.686 l 0,0 c -0.304,-5.602 -1.117,-11.232 -3.411,-16.318 l 0,0 c -2.142,-4.749 -6.268,-8.533 -9.319,-12.706 l 0,0 c -0.375,-0.513 -0.225,-1.159 0.133,-1.621 l 0,0 c 0.113,-0.145 0.245,-0.273 0.39,-0.372 l 0,0 c 13.247,-9.08 31.235,5.523 35.642,18.351 l 0,0 c 5.689,16.553 -1.594,32.695 -6.991,48.262 l 0,0 c -2.631,-2.776 -1.4,-10.99 -11.59,-14.825 l 0,0 c -7.315,-2.753 4.406,22.085 -6.337,38.848 l 0,0 c -4.708,7.347 -15.083,12.989 -23.004,14.868 l 0,0 c -0.007,0.002 -0.013,0.002 -0.018,0.002 l 0,0 c -0.684,0 21.665,-17.297 7.265,-41.133"
         id="path78"
         inkscape:connector-curvature="0" /></clipPath><linearGradient
       x1="0"
       y1="0"
       x2="1"
       y2="0"
       gradientUnits="userSpaceOnUse"
       gradientTransform="matrix(-4.9e-6,112.66992,112.66992,4.9e-6,478.23047,438.21387)"
       spreadMethod="pad"
       id="linearGradient84"><stop
         style="stop-opacity:1;stop-color:#f24800"
         offset="0"
         id="stop86" /><stop
         style="stop-opacity:1;stop-color:#ffcf00"
         offset="1"
         id="stop88" /></linearGradient><clipPath
       clipPathUnits="userSpaceOnUse"
       id="clipPath96"><path
         d="m 453.901,704.201 c -0.345,-8.971 -6.298,-16.892 -10.518,-24.466 l 0,0 c -6.906,-12.39 -13.658,-26.148 -13.252,-40.673 l 0,0 c 0.632,-22.544 24.887,-35.906 45.143,-27.377 l 0,0 c -9.524,2.19 -19.618,11.222 -23.795,19.62 l 0,0 c -4.721,11.099 -4.16,21.978 5.501,29.245 l 0,0 c -0.667,-9.608 2.585,-21.303 11.02,-28.05 l 0,0 c 0.625,8.25 3.964,12.156 7.281,14.217 l 0,0 c -0.323,-4.209 0.027,-8.615 2.146,-12.258 l 0,0 c 2.489,-4.277 14.073,-11.834 20.198,-0.084 l 0,0 c 7.125,-9.25 -7.625,-17 -13.871,-21.328 l 0,0 c 2.052,-0.943 5.518,-0.158 7.646,0.028 l 0,0 c 5.823,0.508 11.493,1.955 16.889,4.182 l 0,0 c 9.139,3.771 14.162,9.468 16.431,18.934 l 0,0 c 6.155,25.684 -1.595,50.675 -16.47,55.554 l 0,0 c 5.625,-14.995 -2.229,-39.153 -7.25,-41.12 l 0,0 c 5.125,21.25 -10.079,40.81 -15.125,46 l 0,0 c 1,-24.75 -10.375,-33.875 -13.915,-34.124 l 0,0 c 3.211,12.177 1.452,27.517 -2.71,39.374 l 0,0 c -2.372,6.757 -9.625,17.375 -17.67,24.155 l 0,0 c 0.896,-7.268 2.603,-14.47 2.321,-21.829"
         id="path98"
         inkscape:connector-curvature="0" /></clipPath><linearGradient
       x1="0"
       y1="0"
       x2="1"
       y2="0"
       gradientUnits="userSpaceOnUse"
       gradientTransform="matrix(-5.1e-6,116.94092,116.94092,5.1e-6,478.47852,609.08936)"
       spreadMethod="pad"
       id="linearGradient104"><stop
         style="stop-opacity:1;stop-color:#f24800"
         offset="0"
         id="stop106" /><stop
         style="stop-opacity:1;stop-color:#ffcf00"
         offset="1"
         id="stop108" /></linearGradient><clipPath
       clipPathUnits="userSpaceOnUse"
       id="clipPath116"><path
         d="m 109.443,693.009 c 2.886,-8.402 6.23,-16.061 6.838,-25.06 l 0,0 c 0.53,-7.847 -1.352,-15.539 -5.451,-22.076 l 0,0 c -0.19,-0.303 -0.359,-0.615 -0.557,-0.913 l 0,0 c 0.546,5.624 0.617,9.858 -7.273,20.54 l 0,0 c -7.89,10.681 -9.5,5.5 -14.5,23.25 l 0,0 c -11.25,-27 -0.263,-67.703 28.306,-76.47 l 0,0 c -1.994,4.282 -3.524,7.26 -3.556,11.908 l 0,0 c -0.032,4.646 2.936,6.45 6.652,10.473 l 0,0 c 2.962,3.208 4.389,11.626 4.468,16.339 l 0,0 c 4.568,-3.187 6.797,-6.334 8.213,-15.167 l 0,0 c 3.417,7.084 5.854,8.854 7.155,14.38 l 0,0 c 3.012,-4.463 3.978,-8.798 3.528,-14.112 l 0,0 c -0.45,-5.313 -1.828,-10.726 -15.738,-23.421 l 0,0 c 4.988,-1.211 21.32,6.827 22.854,15.698 l 0,0 c 1.534,8.872 0.527,11.63 2.313,17.129 l 0,0 c 0.516,1.585 1.215,3.164 2.22,4.748 l 0,0 c 6.927,10.914 13.977,25.191 6.406,39.468 l 0,0 c -3.071,-9.473 -10.336,-14.835 -17.003,-19.72 l 0,0 c -4.484,12.831 7.849,46.497 -6.151,49.83 l 0,0 C 136.5,705.5 129.833,695 124.37,688.5 l 0,0 c -8.037,11.166 -8.406,26.608 -10.703,33.834 l 0,0 c -6,-6.5 -7.889,-18.66 -4.224,-29.325"
         id="path118"
         inkscape:connector-curvature="0" /></clipPath><linearGradient
       x1="0"
       y1="0"
       x2="1"
       y2="0"
       gradientUnits="userSpaceOnUse"
       gradientTransform="matrix(-4.8e-6,110.05322,110.05322,4.8e-6,124.36963,612.28027)"
       spreadMethod="pad"
       id="linearGradient124"><stop
         style="stop-opacity:1;stop-color:#f24800"
         offset="0"
         id="stop126" /><stop
         style="stop-opacity:1;stop-color:#ffcf00"
         offset="1"
         id="stop128" /></linearGradient><clipPath
       clipPathUnits="userSpaceOnUse"
       id="clipPath136"><path
         d="m 124.065,521.212 c -0.544,-2.27 -1.331,-4.423 -2.258,-6.506 l 0,0 c -4.64,-10.425 -13.145,-18.973 -16.408,-30.104 l 0,0 c -3.003,-10.242 -2.508,-21.186 3.263,-30.278 l 0,0 c 2.898,-4.563 7.04,-8.292 11.186,-11.687 l 0,0 c 3.075,-2.516 7.948,-4.879 12.613,-7.559 l 0,0 c 0.726,9.297 0.953,14.629 2.539,20.172 l 0,0 c 3.011,8.177 10.422,11.151 13.635,19.174 l 0,0 c 3.444,8.596 2.949,17.012 0.536,25.81 l 0,0 c -5.08,18.503 -14.621,35.698 -22.006,53.316 l 0,0 c -1.227,-9.675 -0.693,-22.303 -3.1,-32.338"
         id="path138"
         inkscape:connector-curvature="0" /></clipPath><linearGradient
       x1="0"
       y1="0"
       x2="1"
       y2="0"
       gradientUnits="userSpaceOnUse"
       gradientTransform="matrix(-5.2e-6,118.47266,118.47266,5.2e-6,127.34326,435.07764)"
       spreadMethod="pad"
       id="linearGradient144"><stop
         style="stop-opacity:1;stop-color:#f24800"
         offset="0"
         id="stop146" /><stop
         style="stop-opacity:1;stop-color:#ffcf00"
         offset="1"
         id="stop148" /></linearGradient><clipPath
       clipPathUnits="userSpaceOnUse"
       id="clipPath156"><path
         d="m 121.342,202.871 c -0.609,-17.386 -0.774,-22.06 -5.955,-31.047 l 0,0 c -3.365,-5.838 -8.224,-10.789 -12.923,-15.577 l 0,0 c -4.908,-4.999 -9.981,-10.169 -13.487,-16.433 l 0,0 c -2.832,-5.061 -4.37,-14.341 -4.003,-22.792 l 0,0 c 0.248,-5.719 1.368,-11.059 3.549,-14.454 l 0,0 c 5.524,-8.595 16.827,-15.074 26.292,-15.074 l 0,0 c 3.14,0 5.831,0.724 7.998,2.151 l 0,0 0.567,0.375 0.849,0.559 -0.852,0.067 -0.839,0.067 c -0.047,0.003 -4.711,0.415 -9.32,4.356 l 0,0 c -5.905,5.049 -9.153,13.681 -9.426,25.011 l 0,0 c 3.62,-2.94 6.806,-5.335 9.909,-5.335 l 0,0 c 2.749,0 5.217,1.836 7.765,5.778 l 0,0 c 3.463,5.355 4.798,11.869 5.773,17.366 l 0,0 c 3.442,-5.393 5.75,-17.188 -1,-25.597 l 0,0 -0.792,-0.988 1.265,0.04 c 2.983,0.095 5.388,1.153 7.148,3.147 l 0,0 c 5.039,5.715 3.867,18.191 3.011,27.301 l 0,0 c -0.241,2.567 -0.458,4.878 -0.517,6.738 l 0,0 c 6.317,-9.779 8.808,-23.548 6.351,-35.663 l 0,0 c -1.334,-6.576 -4.753,-15.465 -13.356,-21.171 l 0,0 c -0.302,-0.201 -0.595,-0.408 -0.911,-0.601 l 0,0 c -0.013,-0.007 -0.026,-0.017 -0.04,-0.025 l 0,0 -0.876,-0.534 0.906,-0.479 c 1.867,-0.989 4.017,-1.49 6.393,-1.49 l 0,0 c 9.847,0 21.092,8.392 24.71,12.22 l 0,0 c 5.272,5.578 8.698,13.352 9.821,21.977 l 0,0 c 0.298,2.284 0.444,4.623 0.41,7 l 0,0 c -0.033,2.235 -0.065,4.377 -0.132,6.455 l 0,0 c -0.487,15.077 -2.859,26.709 -21.308,44.983 l 0,0 -0.798,0.789 -0.187,-1.106 c -1.237,-7.341 -2.829,-14.749 -7.122,-18.931 l 0,0 c 1.447,4.768 0.07,13.681 -2.776,20.182 l 0,0 c -2.006,4.587 -5.791,9.119 -9.128,13.118 l 0,0 c -2.407,2.886 -4.682,5.612 -5.871,7.869 l 0,0 -0.521,0.986 -0.5,0.951 -0.077,-2.189 z m -7.652,-87.542 c 0.016,0 0.031,0.002 0.046,0.002 l 0,0 c -0.011,0 -0.023,-0.003 -0.035,-0.003 l 0,0 c -0.004,0 -0.008,10e-4 -0.011,10e-4 m 21.012,-26.174 c 0.051,0 0.101,-0.004 0.153,-0.003 l 0,0 c -0.011,0 -0.022,-0.002 -0.034,-0.002 l 0,0 c -0.041,0 -0.079,0.005 -0.119,0.005 m -19.457,-1.066 c -0.143,-0.003 -0.285,-0.012 -0.43,-0.012 l 0,0 c -0.032,0 -0.065,0.004 -0.097,0.004 l 0,0 c 0.015,0 0.03,0 0.046,0 l 0,0 c 0.161,0 0.321,0.004 0.481,0.008"
         id="path158"
         inkscape:connector-curvature="0" /></clipPath><linearGradient
       x1="0"
       y1="0"
       x2="1"
       y2="0"
       gradientUnits="userSpaceOnUse"
       gradientTransform="matrix(-5.1e-6,117.56543,117.56543,5.1e-6,127.34326,87.494141)"
       spreadMethod="pad"
       id="linearGradient164"><stop
         style="stop-opacity:1;stop-color:#f24800"
         offset="0"
         id="stop166" /><stop
         style="stop-opacity:1;stop-color:#ffcf00"
         offset="1"
         id="stop168" /></linearGradient><clipPath
       clipPathUnits="userSpaceOnUse"
       id="clipPath176"><path
         d="M 0,800 800,800 800,0 0,0 0,800 Z"
         id="path178"
         inkscape:connector-curvature="0" /></clipPath><clipPath
       clipPathUnits="userSpaceOnUse"
       id="clipPath296"><path
         d="m 638.351,331.352 c -0.4,6.842 -0.83,11.567 -4.426,18.116 l 0,0 c -0.811,-12.434 -10.31,-22.566 -12.883,-35.023 l 0,0 c -3.485,-16.866 2.609,-29.216 25.746,-42.261 l 0,0 c -0.016,0.017 -0.004,0.014 0.008,0.012 l 0,0 c -7.26,15.122 -3.387,23.787 2.201,31.954 l 0,0 c 6.12,8.947 7.697,17.806 7.697,17.806 l 0,0 c 0,0 0.014,-0.019 0.019,-0.024 l 0,0 c 0.002,0.009 0.007,0.036 0.007,0.036 l 0,0 c 0,0 4.803,-6.246 2.893,-16.017 l 0,0 c 8.475,9.466 10.073,24.512 8.793,30.282 l 0,0 c 0.01,-0.008 0.02,-0.017 0.031,-0.025 l 0,0 c -0.002,0.011 -0.003,0.026 -0.005,0.037 l 0,0 c 19.215,-13.429 27.427,-42.506 16.361,-64.054 l 0,0 c 58.828,33.308 14.617,83.13 6.919,88.743 l 0,0 c 2.566,-5.614 3.053,-15.119 -2.133,-19.73 l 0,0 c -8.777,33.282 -30.478,40.103 -30.478,40.103 l 0,0 c 2.567,-17.163 -9.301,-35.931 -20.75,-49.955"
         id="path298"
         inkscape:connector-curvature="0" /></clipPath><linearGradient
       x1="0"
       y1="0"
       x2="1"
       y2="0"
       gradientUnits="userSpaceOnUse"
       gradientTransform="matrix(-4.8e-6,109.12207,109.12207,4.8e-6,667.50781,272.18457)"
       spreadMethod="pad"
       id="linearGradient304"><stop
         style="stop-opacity:1;stop-color:#f24800"
         offset="0"
         id="stop306" /><stop
         style="stop-opacity:1;stop-color:#ffcf00"
         offset="1"
         id="stop308" /></linearGradient><clipPath
       clipPathUnits="userSpaceOnUse"
       id="clipPath316"><path
         d="m 670.307,532.573 c -0.208,-0.863 -0.442,-1.718 -0.665,-2.593 l 0,0 c -1.922,-9.135 -1.08,-19.251 3.811,-27.542 l 0,0 c 0.353,-0.629 0.706,-1.282 1.039,-1.952 l 0,0 c 0.666,-1.341 1.25,-2.744 1.674,-4.262 l 0,0 c 0.314,-0.611 0.59,-1.263 0.822,-1.945 l 0,0 c 1.625,-4.769 1.165,-10.947 -2.524,-13.897 l 0,0 c 1.264,2.529 1.467,5.285 0.958,8.048 l 0,0 c -0.171,0.921 -0.42,1.841 -0.732,2.744 l 0,0 c -0.689,2.571 -1.996,4.763 -3.582,6.774 l 0,0 c -0.529,0.671 -1.089,1.323 -1.666,1.961 l 0,0 c -4.252,4.077 -9.309,8.292 -9.309,15.035 l 0,0 c -2.529,-1.686 -3.372,-5.9 -1.767,-8.563 l 0,0 c 0.223,-0.843 0.491,-1.689 0.776,-2.529 l 0,0 c 1.998,-5.884 4.783,-11.457 1.833,-15.884 l 0,0 c -4.214,-6.743 -7.587,8.431 -12.644,12.646 l 0,0 c 0.843,-2.529 2.528,-5.059 1.709,-7.219 l 0,0 c 0.026,-0.667 0.075,-1.388 0.174,-2.409 l 0,0 c -0.068,-0.722 -0.184,-1.432 -0.338,-2.143 l 0,0 c -0.773,-3.551 -2.529,-7.071 -4.355,-11.583 l 0,0 c -0.175,-0.875 -0.315,-1.759 -0.422,-2.648 l 0,0 c -0.741,-6.225 0.215,-12.738 2.707,-18.371 l 0,0 c 0.389,-0.629 0.818,-1.26 1.286,-1.886 l 0,0 c 1.767,-2.635 5.14,-4.322 7.302,-5.659 l 0,0 c 0.736,-0.374 1.491,-0.714 2.26,-1.017 l 0,0 c 0.672,-0.266 1.356,-0.495 2.047,-0.708 l 0,0 c -2.274,1.923 -4.157,3.806 -5.034,4.862 l 0,0 c -4.614,5.218 0.371,15.604 3.836,21.062 l 0,0 c 3.299,5.581 7.671,9.861 3.811,17.303 l 0,0 c 3.85,-2.174 7.427,-4.689 8.71,-9.846 l 0,0 c 1.116,-4.493 -1.836,-8.088 -2.927,-12.227 l 0,0 C 666.5,455.167 680.5,457.666 682.5,463.833 l 0,0 c 2,6.167 5.751,6.742 7.833,7.667 l 0,0 c -2.205,-2.579 -1.001,-7.5 -0.5,-12 l 0,0 c 0.501,-4.5 -4.451,-8.17 -9.177,-12.707 l 0,0 c 2.56,0.611 5.023,1.423 7.296,2.397 l 0,0 c 0.843,0.527 1.653,1.097 2.429,1.706 l 0,0 c 11.633,9.124 15.504,26.929 6.316,39.17 l 0,0 c -0.49,0.813 -0.99,1.613 -1.488,2.41 l 0,0 c -1.99,3.192 -3.995,6.338 -5.312,9.653 l 0,0 c -0.34,0.824 -0.663,1.645 -0.965,2.47 l 0,0 c -2.116,5.749 -3.251,11.689 -1.305,18.089 l 0,0 c 0.326,0.86 0.724,1.698 1.197,2.517 l 0,0 c 0.475,0.815 1.026,1.612 1.657,2.384 l 0,0 c -2.023,-0.759 -3.97,-1.972 -5.613,-3.505 l 0,0 c -0.549,-0.512 -1.063,-1.059 -1.534,-1.638 l 0,0 c -0.743,-0.821 -1.404,-1.859 -1.928,-3.019 l 0,0 c -0.262,-0.581 -0.486,-1.192 -0.668,-1.826 l 0,0 c -0.373,-3.5 -1.216,-6.872 1.313,-9.4 l 0,0 c -4.215,3.372 -3.371,8.43 -2.18,12.605 l 0,0 c 0.183,0.522 0.375,1.042 0.569,1.562 l 0,0 c 0.19,0.52 0.384,1.041 0.574,1.562 l 0,0 c 0.251,0.696 0.494,1.396 0.716,2.105 l 0,0 c 3.694,11.671 -3.894,26.002 -15.697,28.531 l 0,0 c 5.692,-5.691 6.165,-14.226 4.274,-21.993"
         id="path318"
         inkscape:connector-curvature="0" /></clipPath><linearGradient
       x1="0"
       y1="0"
       x2="1"
       y2="0"
       gradientUnits="userSpaceOnUse"
       gradientTransform="matrix(1.7132078,108.67063,108.67063,-1.7132078,672.91602,446.17285)"
       spreadMethod="pad"
       id="linearGradient324"><stop
         style="stop-opacity:1;stop-color:#f24800"
         offset="0"
         id="stop326" /><stop
         style="stop-opacity:1;stop-color:#ffcf00"
         offset="1"
         id="stop328" /></linearGradient><clipPath
       clipPathUnits="userSpaceOnUse"
       id="clipPath336"><path
         d="m 492.409,179.083 c -2.186,-9.686 -8.421,-20.189 -10.289,-30.389 l 0,0 c -5.624,7.442 -6.808,15.966 -4.615,25.388 l 0,0 c 1.256,5.4 3.626,10.5 6.61,15.15 l 0,0 c 1.237,1.928 2.946,3.592 4.098,5.558 l 0,0 c 0.383,0.657 -0.081,1.217 -0.769,0.938 l 0,0 c -8.345,-3.368 -15.601,-6.432 -21.106,-13.893 l 0,0 c -4.578,-6.201 -6.682,-14.019 -6.746,-21.65 l 0,0 c -0.07,-8.126 2.859,-16.267 7.006,-23.153 l 0,0 c 2.291,-3.802 5.819,-6.726 9.14,-9.585 l 0,0 c 4.785,-4.12 9.576,-8.939 5.383,-14.971 l 0,0 c -1.767,5.114 -5.829,9.165 -10.318,12.102 l 0,0 c -2.877,1.884 -6.147,3.028 -8.981,5.026 l 0,0 c -1.78,1.255 -3.205,2.899 -4.25,4.8 l 0,0 c -1.085,1.972 -0.571,7.282 1.657,8.431 l 0,0 c 0.36,0.187 1.127,1.385 0.315,1.524 l 0,0 c -2.538,0.434 -5.275,-2.521 -6.421,-4.435 l 0,0 c -2.392,-3.999 -2.639,-8.412 -0.245,-12.451 l 0,0 c 2.576,-4.352 7.067,-7.217 9.705,-11.529 l 0,0 c 1.174,-1.922 0.944,-3.678 -0.761,-5.278 l 0,0 c -2.976,-2.79 -6.556,-1.533 -9.411,0.263 l 0,0 c -5.51,3.467 -5.638,10.632 -2.28,15.636 l 0,0 c 0.494,0.736 -0.325,1.365 -0.963,0.81 l 0,0 c -7.229,-6.264 -8.693,-14.679 -3.277,-22.598 l 0,0 c 6.776,-9.909 19.666,-12.411 30.877,-12.296 l 0,0 c 7.036,0.414 34.303,0.414 41.339,0 l 0,0 c 11.21,-0.115 24.099,2.387 30.878,12.296 l 0,0 c 5.414,7.919 3.951,16.334 -3.278,22.598 l 0,0 c -0.639,0.555 -1.459,-0.074 -0.965,-0.81 l 0,0 c 3.36,-5.004 3.23,-12.169 -2.278,-15.636 l 0,0 c -2.855,-1.796 -6.436,-3.053 -9.411,-0.263 l 0,0 c -1.706,1.6 -1.936,3.356 -0.761,5.278 l 0,0 c 2.637,4.312 7.127,7.177 9.704,11.529 l 0,0 c 2.392,4.039 2.148,8.452 -0.245,12.451 l 0,0 c -1.144,1.914 -3.884,4.869 -6.421,4.435 l 0,0 c -0.812,-0.139 -0.044,-1.337 0.317,-1.524 l 0,0 c 2.227,-1.149 2.739,-6.459 1.657,-8.431 l 0,0 c -1.045,-1.901 -2.472,-3.545 -4.251,-4.8 l 0,0 c -2.834,-1.998 -6.104,-3.142 -8.982,-5.026 l 0,0 c -4.488,-2.937 -8.55,-6.986 -10.318,-12.102 l 0,0 c -4.193,6.032 0.599,10.851 5.382,14.971 l 0,0 c 3.321,2.859 6.85,5.783 9.142,9.585 l 0,0 c 4.148,6.886 7.075,15.027 7.006,23.153 l 0,0 c -0.065,7.631 -2.17,15.449 -6.747,21.65 l 0,0 c -5.505,7.461 -12.76,10.525 -21.104,13.893 l 0,0 c -0.689,0.279 -1.155,-0.281 -0.771,-0.938 l 0,0 c 1.151,-1.966 2.862,-3.63 4.099,-5.558 l 0,0 c 2.982,-4.65 5.353,-9.75 6.61,-15.15 l 0,0 c 2.13,-9.152 1.064,-17.452 -4.15,-24.741 l 0,0 c -1.674,7.881 -4.446,21.776 -4.671,23.557 l 0,0 c -2.373,19.023 -8.77,31.716 -22.565,37.162 l 0,0 c 5.139,-11.506 9.648,-16.725 6.425,-30.977"
         id="path338"
         inkscape:connector-curvature="0" /></clipPath><linearGradient
       x1="0"
       y1="0"
       x2="1"
       y2="0"
       gradientUnits="userSpaceOnUse"
       gradientTransform="matrix(-6.7e-6,154.23471,154.23471,6.7e-6,497.4375,92.875977)"
       spreadMethod="pad"
       id="linearGradient344"><stop
         style="stop-opacity:1;stop-color:#f24800"
         offset="0"
         id="stop346" /><stop
         style="stop-opacity:1;stop-color:#ffcf00"
         offset="1"
         id="stop348" /></linearGradient><clipPath
       clipPathUnits="userSpaceOnUse"
       id="clipPath356"><path
         d="m 473.215,374.853 c -0.265,-1.102 -0.565,-2.192 -0.848,-3.309 l 0,0 c -2.453,-11.658 -1.379,-24.566 4.862,-35.147 l 0,0 c 0.451,-0.802 0.9,-1.634 1.325,-2.49 l 0,0 c 0.852,-1.711 1.595,-3.502 2.14,-5.439 l 0,0 c 0.399,-0.78 0.75,-1.611 1.045,-2.481 l 0,0 c 2.076,-6.086 1.487,-13.969 -3.22,-17.734 l 0,0 c 1.614,3.228 1.871,6.744 1.222,10.27 l 0,0 c -0.217,1.175 -0.535,2.349 -0.935,3.502 l 0,0 c -0.877,3.281 -2.544,6.077 -4.568,8.644 l 0,0 c -0.675,0.855 -1.391,1.688 -2.128,2.5 l 0,0 c -5.425,5.203 -11.878,10.584 -11.878,19.187 l 0,0 c -3.228,-2.15 -4.302,-7.529 -2.254,-10.926 l 0,0 c 0.284,-1.075 0.625,-2.155 0.989,-3.228 l 0,0 c 2.55,-7.508 6.105,-14.621 2.341,-20.267 l 0,0 c -5.378,-8.606 -9.682,10.756 -16.136,16.136 l 0,0 c 1.076,-3.228 2.517,-6.66 2.403,-12.287 l 0,0 c -0.113,-5.627 -1.699,-11.31 -5.987,-17.516 l 0,0 c -9.712,-23.795 12.788,-37.045 26.913,-39.721 l 0,0 c 13.184,-2.499 26.332,-0.493 37.581,9.226 l 0,0 c 9.781,8.451 12.533,31.218 0.809,46.838 l 0,0 c -0.628,1.036 -1.264,2.058 -1.899,3.076 l 0,0 c -2.541,4.071 -5.095,8.087 -6.781,12.316 l 0,0 c -0.432,1.052 -0.844,2.099 -1.228,3.152 l 0,0 c -2.699,7.336 -4.149,14.917 -1.669,23.084 l 0,0 c 0.419,1.096 0.926,2.166 1.53,3.21 l 0,0 c 0.604,1.042 1.308,2.058 2.115,3.042 l 0,0 c -2.582,-0.967 -5.066,-2.515 -7.166,-4.471 l 0,0 c -0.697,-0.654 -1.353,-1.352 -1.956,-2.09 l 0,0 c -0.946,-1.048 -1.792,-2.373 -2.458,-3.853 l 0,0 c -0.334,-0.74 -0.623,-1.521 -0.853,-2.33 l 0,0 c -0.477,-4.467 -1.551,-8.769 1.676,-11.994 l 0,0 c -5.38,4.303 -4.304,10.753 -2.784,16.084 l 0,0 c 0.236,0.664 0.48,1.33 0.725,1.994 l 0,0 c 0.246,0.662 0.492,1.326 0.733,1.992 l 0,0 c 0.321,0.888 0.634,1.781 0.917,2.686 l 0,0 c 4.711,14.892 -4.971,33.179 -20.031,36.406 l 0,0 c 7.262,-7.26 7.867,-18.152 5.453,-28.062"
         id="path358"
         inkscape:connector-curvature="0" /></clipPath><linearGradient
       x1="0"
       y1="0"
       x2="1"
       y2="0"
       gradientUnits="userSpaceOnUse"
       gradientTransform="matrix(-2.2198968,140.81046,-140.81046,-2.2198968,477.42383,262.75781)"
       spreadMethod="pad"
       id="linearGradient364"><stop
         style="stop-opacity:1;stop-color:#f24800"
         offset="0"
         id="stop366" /><stop
         style="stop-opacity:1;stop-color:#ffcf00"
         offset="1"
         id="stop368" /></linearGradient><clipPath
       clipPathUnits="userSpaceOnUse"
       id="clipPath376"><path
         d="m 690.211,713.752 c -2.712,-3.995 -7.074,-6.597 -8.969,-10.901 l 0,0 c -1.735,-4.066 -2.598,-8.824 0.796,-13.602 l 0,0 c 2.94,-4.139 6.776,-8.145 7.365,-13.574 l 0,0 c 0.714,-4.972 -12.069,-8.008 -14.069,-18.341 l 0,0 c -6.667,9 -18.792,12.271 -18.078,17.243 l 0,0 c 0.589,5.429 4.425,9.436 7.365,13.574 l 0,0 c -8.274,-5.446 -6.789,-4.643 -10.627,-5.789 l 0,0 c -3.429,-0.992 -6.78,2.777 -6.621,6.572 l 0,0 c -1.225,-4.49 0.565,-7.927 2.328,-11.788 l 0,0 c 3.171,-6.182 5.741,-10.155 5.234,-17.716 l 0,0 c -0.537,-7.771 -4.967,-12.707 -9.75,-17.744 l 0,0 c 0.926,2.41 1.577,4.887 1.965,7.623 l 0,0 c 0.522,3.674 -0.686,8.381 -3.407,11.636 l 0,0 c 1.735,-7.09 -2.287,-9.852 -3.94,-13.906 l 0,0 c -9.112,-22.322 14.583,-36.762 23.863,-36.286 l 0,0 c 2.836,-0.523 5.857,-0.81 8.997,-0.81 l 0,0 c 9.092,0 17.218,2.376 22.601,6.104 l 0,0 c 9.12,5.777 17.68,17.173 11.592,32.089 l 0,0 c -1.653,4.056 -5.675,6.817 -3.94,13.907 l 0,0 c -2.721,-3.255 -3.93,-7.962 -3.408,-11.636 l 0,0 c 0.39,-2.735 1.039,-5.212 1.966,-7.623 l 0,0 c -4.784,5.037 -9.213,9.973 -9.75,17.743 l 0,0 c -0.507,7.561 2.063,11.535 5.234,17.718 l 0,0 c 1.763,3.859 3.553,7.297 2.328,11.787 l 0,0 c 0.159,-3.795 -2.696,-6.539 -6.126,-5.547 l 0,0 c -3.837,1.146 -5.062,5.635 -5.379,9.195 l 0,0 c -0.668,7.325 3.82,13.759 6.312,20.629 l 0,0 c 1.348,3.713 2.848,7.831 0.429,12.15 l 0,0 c 1.248,-6.248 -2.984,-10.865 -4.311,-12.707"
         id="path378"
         inkscape:connector-curvature="0" /></clipPath><linearGradient
       x1="0"
       y1="0"
       x2="1"
       y2="0"
       gradientUnits="userSpaceOnUse"
       gradientTransform="matrix(1.9030379,128.64656,128.64656,-1.9030379,672.8457,605.00293)"
       spreadMethod="pad"
       id="linearGradient384"><stop
         style="stop-opacity:1;stop-color:#f24800"
         offset="0"
         id="stop386" /><stop
         style="stop-opacity:1;stop-color:#ffcf00"
         offset="1"
         id="stop388" /></linearGradient><clipPath
       clipPathUnits="userSpaceOnUse"
       id="clipPath396"><path
         d="m 292.452,538.425 c -6.546,-6.565 -7.715,-13.861 -3.143,-21.137 l 0,0 c 4.217,-7.277 3.029,-10.408 2.614,-19.156 l 0,0 c -1.407,5.164 -8.426,7.687 -15.048,10.273 l 0,0 c -5.583,2.183 -13.818,2.702 -19.899,1.527 l 0,0 c 5.977,-0.704 11.118,-4.207 12.731,-7.033 l 0,0 c 3.253,-5.703 1.008,-11.708 -4.233,-18.167 l 0,0 c -4.794,-5.911 -6.767,-14.181 3.427,-19.11 l 0,0 c -8.264,2.154 -14.384,11.685 -7.356,17.788 l 0,0 c -4.569,-3.286 -7.913,-6.338 -8.968,-11.032 l 0,0 c -3.11,-14.54 15.423,-33.962 42.257,-31.251 l 0,0 c -7.9,6.03 -14.417,13.873 -14.584,21.373 l 0,0 c -0.166,7.5 1.591,11.375 4.242,15.392 l 0,0 c 2.978,4.518 2.317,9.851 -3.092,12.306 l 0,0 c 10.032,-0.66 14.113,-8.837 13.69,-14.57 l 0,0 c 1.491,1.235 6.302,4.199 5.736,11.248 l 0,0 c -0.666,8.3 -6.324,21.15 2.387,27.171 l 0,0 c -8.559,-8.891 5.939,-19.169 11.874,-23.51 l 0,0 c 5.651,-4.153 12.324,-16.048 9.656,-27.648 l 0,0 c -1.215,-5.283 -7.245,-13.974 -15.261,-20.174 l 0,0 c 9.446,3.329 18.67,9.034 23.399,16.245 l 0,0 c 5.589,8.519 7.145,19.839 4.646,27.108 l 0,0 c -2.96,8.609 -6.202,15.511 -12.49,20.897 l 0,0 c -9.7,8.304 -13.112,9.134 -19.355,17.868 l 0,0 c -8.463,11.842 -1.613,19.428 2.619,23.684 l 0,0 c -5.976,-1.877 -12.091,-6.324 -15.849,-10.092"
         id="path398"
         inkscape:connector-curvature="0" /></clipPath><linearGradient
       x1="0"
       y1="0"
       x2="1"
       y2="0"
       gradientUnits="userSpaceOnUse"
       gradientTransform="matrix(-1.6165845,107.00872,107.00872,1.6165845,295.93945,442.08105)"
       spreadMethod="pad"
       id="linearGradient404"><stop
         style="stop-opacity:1;stop-color:#f24800"
         offset="0"
         id="stop406" /><stop
         style="stop-opacity:1;stop-color:#ffcf00"
         offset="1"
         id="stop408" /></linearGradient><clipPath
       clipPathUnits="userSpaceOnUse"
       id="clipPath416"><path
         d="m 299.324,717.18 c -3.579,-3.15 -6.385,-8.439 -7.607,-13.032 l 0,0 c -1.075,-4.134 -1.228,-8.323 -0.923,-12.608 l 0,0 c 0.307,-3.98 1.224,-7.907 0.307,-12.652 l 0,0 c -1.852,-9.59 -8.14,-15.516 -12.257,-24.512 l 0,0 c -3.827,-8.352 -5.223,-19.201 -1.367,-27.848 l 0,0 c 8.112,-18.207 23.869,-19.227 24.573,-19.368 l 0,0 0.522,0 c 9.341,1.226 17.006,5.434 23.286,12.631 l 0,0 c 5.969,6.737 8.954,14.538 9.414,23.569 l 0,0 c 0.307,10.412 -4.136,20.676 -10.107,29.096 l 0,0 c -0.035,0.05 -0.068,0.096 -0.101,0.144 l 0,0 c 0.029,0.055 0.047,0.107 0.078,0.162 l 0,0 c -0.05,-0.02 -0.095,-0.045 -0.146,-0.066 l 0,0 c -2.155,3.103 -4.299,5.86 -6.392,8.606 l 0,0 c 5.47,14.961 10.102,29.378 0.037,43.173 l 0,0 c 4.222,-8.988 -1.043,-21.673 -5.58,-27.535 l 0,0 c -0.876,-1.135 -1.795,-2.268 -2.74,-3.405 l 0,0 c -0.546,0.98 -1.085,1.989 -1.613,3.056 l 0,0 c -4.009,8.099 -4.048,19.657 2.624,27.968 l 0,0 c -4.919,-1.732 -8.233,-4.051 -12.008,-7.379 m -3.913,-95.654 c -3.112,13.782 1.066,27.851 12.886,38.573 l 0,0 c -3.213,-3.556 -0.777,-10.907 0.673,-14.732 l 0,0 c 2.848,-7.531 6.556,-13.576 4.034,-21.724 l 0,0 c -1.643,-5.324 -6.228,-10.754 -11.809,-12.868 l 0,0 -0.589,-0.362 c -2.834,4.173 -4.694,8.899 -5.195,11.113"
         id="path418"
         inkscape:connector-curvature="0" /></clipPath><linearGradient
       x1="0"
       y1="0"
       x2="1"
       y2="0"
       gradientUnits="userSpaceOnUse"
       gradientTransform="matrix(-5.1e-6,117.01282,117.01282,5.1e-6,305.23828,606.77197)"
       spreadMethod="pad"
       id="linearGradient424"><stop
         style="stop-opacity:1;stop-color:#f24800"
         offset="0"
         id="stop426" /><stop
         style="stop-opacity:1;stop-color:#ffcf00"
         offset="1"
         id="stop428" /></linearGradient><clipPath
       clipPathUnits="userSpaceOnUse"
       id="clipPath436"><path
         d="m 119.234,390.23 c 5.006,-1.964 5.345,-7.27 -5.183,-15.046 l 0,0 c -10.529,-7.776 -13.068,-26.239 -10.321,-37.906 l 0,0 c 0,0 -7.413,0.429 -6.954,10.541 l 0,0 c -3.758,-1.466 -12.609,-15.275 1.334,-29.945 l 0,0 c -7.611,-2.389 -17.951,9.605 -19.008,21.119 l 0,0 C 68.847,325.79 73.259,315.642 82.99,301.241 l 0,0 c -3.554,-1.389 -5.794,0.467 -9.063,3.354 l 0,0 c -0.52,-11.152 21.637,-36.672 41.521,-37.325 l 0,0 c -19.854,13.08 -20.981,21.053 -20.273,25.393 l 0,0 c 0.837,-3.856 7.803,-5.107 9.149,-4.22 l 0,0 c -6.961,7.778 -2.575,15.88 -0.205,20.192 l 0,0 c -1.846,-6.618 2.484,-10.296 6.482,-13.597 l 0,0 c 3.995,4.636 4.435,15.01 -0.13,25.343 l 0,0 c 10.638,-3.845 14.274,-18.789 12.702,-24.023 l 0,0 c -1.57,-5.232 -0.345,-6.214 3.888,-2.506 l 0,0 c 4.235,3.706 8.038,14.915 8.038,14.915 l 0,0 c 0,0 0.897,-9.105 -1.299,-17.847 l 0,0 c 5.058,3.345 7.531,3.706 11.408,2.667 l 0,0 c -4.422,-3.872 -5.069,-11.019 -8.526,-14.072 l 0,0 c 0,0 2.649,-1.652 8.651,2.108 l 0,0 c 0.765,-5.088 -12.179,-14.302 -12.179,-14.302 l 0,0 c 0,0 2.066,-0.854 11.406,4.486 l 0,0 c 12.407,6.381 15.261,37.338 21.202,39.519 l 0,0 c -5.819,5.578 -11.518,-1.818 -15.627,-2.164 l 0,0 c -2.972,3.277 0.289,13.763 8.036,23.627 l 0,0 c 0,0 -9.14,2.664 -18.961,-13.339 l 0,0 c -6.303,7.404 -0.923,26.892 5.481,35.515 l 0,0 c -4.328,0.035 -10.876,-3.028 -16.851,-9.108 l 0,0 c -5.975,-6.08 -5.374,5.75 -0.691,19.823 l 0,0 c 4.551,13.672 -1.083,24.578 -7.362,24.578 l 0,0 c -0.184,0 -0.369,-0.009 -0.553,-0.028"
         id="path438"
         inkscape:connector-curvature="0" /></clipPath><linearGradient
       x1="0"
       y1="0"
       x2="1"
       y2="0"
       gradientUnits="userSpaceOnUse"
       gradientTransform="matrix(-5.4e-6,122.98828,122.98828,5.4e-6,119.5,267.27051)"
       spreadMethod="pad"
       id="linearGradient444"><stop
         style="stop-opacity:1;stop-color:#f24800"
         offset="0"
         id="stop446" /><stop
         style="stop-opacity:1;stop-color:#ffcf00"
         offset="1"
         id="stop448" /></linearGradient></defs><sodipodi:namedview
     pagecolor="#ffffff"
     bordercolor="#666666"
     borderopacity="1"
     objecttolerance="10"
     gridtolerance="10"
     guidetolerance="10"
     inkscape:pageopacity="0"
     inkscape:pageshadow="2"
     inkscape:window-width="1363"
     inkscape:window-height="818"
     id="namedview4"
     showgrid="false"
     inkscape:zoom="0.71968317"
     inkscape:cx="472.45763"
     inkscape:cy="470.33898"
     inkscape:window-x="0"
     inkscape:window-y="0"
     inkscape:window-maximized="0"
     inkscape:current-layer="g10" /><g
     id="g10"
     inkscape:groupmode="layer"
     inkscape:label="5"
     transform="matrix(1.25,0,0,-1.25,0,1000)"><g
       id="g12"><g
         id="g14"
         clip-path="url(#clipPath16)"><g
           id="g20"><g
             id="g22"><path
               d="m 274.631,350.482 c 0.464,-8.286 -1.208,-16.557 -3.388,-24.503 l 0,0 c -0.519,-1.889 -1.087,-3.765 -1.695,-5.629 l 0,0 c -1.73,-5.312 -3.788,-10.524 -5.991,-15.645 l 0,0 c -2.3,-5.349 -3.577,-10.464 -1.921,-16.153 l 0,0 c 0.037,-0.126 0.088,-0.237 0.144,-0.338 l 0,0 c 0.002,-0.003 0.002,-0.007 0.004,-0.011 l 0,0 c 3.639,-8.56 13.587,-12.862 22.33,-11.156 l 0,0 c 0.207,0.04 -9.239,9.641 -8.801,18.265 l 0,0 c 0.437,8.625 3.999,15.938 12.187,20.438 l 0,0 c -1.679,-5.333 3.286,-21.38 0.937,-26.5 l 0,0 c 3.086,-0.731 8.066,0.374 12.813,10.626 l 0,0 c 12.937,-16.064 -7.143,-22.575 -7.125,-22.626 l 0,0 c 7.727,-0.875 10.2,0.236 15.53,0.909 l 0,0 c 8.964,1.134 16.259,7.923 18.594,16.511 l 0,0 c 0.18,0.663 0.313,1.326 0.437,1.989 l 0,0 c 2.26,12.114 -4.39,24.249 -1.894,36.466 l 0,0 c -5.667,-0.25 -10.377,-7.729 -15.275,-10.951 l 0,0 c -0.043,-0.029 -0.086,-0.056 -0.129,-0.084 l 0,0 c 2.339,5.382 3.927,10.792 3.699,16.994 l 0,0 c -0.353,9.61 -5.966,18.652 -10.293,26.92 l 0,0 c -2.857,-5.817 -5.323,-21.435 -11.05,-30.111 l 0,0 c -0.792,7.109 -1.3,14.009 -5.085,20.419 l 0,0 c -4.074,6.899 -10.784,14.501 -18.283,16.726 l 0,0 c 2.958,-7.871 3.82,-14.749 4.255,-22.556"
               style="fill:url(#linearGradient24);stroke:none"
               id="path30"
               inkscape:connector-curvature="0" /></g></g></g></g><g
       id="g32"><g
         id="g34"
         clip-path="url(#clipPath36)"><g
           id="g40"><g
             id="g42"><path
               d="m 266.666,146.083 c -3.762,1.628 -5.749,3.666 -11.953,13.321 l 0,0 c -4.106,-12.327 -2.805,-42.923 4.354,-53.863 l 0,0 c 6.612,-8.897 9.683,-15.041 30.6,-17.795 l 0,0 C 281,98.833 279.454,113.917 281.83,125.78 l 0,0 c 1.091,5.451 2.838,10.843 4.798,16.077 l 0,0 c 3.426,-5.355 13.372,-13.108 7.637,-32.959 l 0,0 c 7.927,0.672 13.96,7.176 17.935,13.946 l 0,0 c 0.675,-4.721 0.821,-9.592 -0.081,-14.227 l 0,0 C 310.715,101.4 300.723,89.121 301.452,88.849 l 0,0 c 12.296,-4.61 24.377,7.311 29.804,17.13 l 0,0 c 6.018,10.888 9.758,35.823 6.418,37.588 l 0,0 c -1.257,-4.568 -8.288,-7.127 -11.977,-10.248 l 0,0 c 0.921,4.194 0.813,8.331 -0.298,12.759 l 0,0 c -1.558,6.202 -3.649,13.005 -6.423,17.98 l 0,0 c -1.476,-6.392 -10.374,-16.409 -17.204,-21.369 l 0,0 c 2.305,5.776 5.228,14.81 6.061,22.644 l 0,0 c 1.172,11.015 -10.666,40.167 -22.333,44.727 l 0,0 c 3.75,-18.56 -15.071,-65.605 -18.834,-63.977"
               style="fill:url(#linearGradient44);stroke:none"
               id="path50"
               inkscape:connector-curvature="0" /></g></g></g></g><g
       id="g52"><g
         id="g54"
         clip-path="url(#clipPath56)"><g
           id="g60"><g
             id="g62"><path
               d="m 655.356,155.465 c -5.099,-10.263 -11.813,-19.763 -14.592,-31.029 l 0,0 c -1.941,-7.869 -1.749,-17.066 5.684,-22.067 l 0,0 c 7.996,-5.382 15.472,-6.828 25.099,-6.45 l 0,0 c 12.882,1.104 23.637,10.115 23.758,23.5 l 0,0 c 0.001,0.184 -0.005,0.367 -0.005,0.55 l 0,0 c -0.003,10.488 -2.779,21.372 -5.597,31.4 l 0,0 c -1.536,-6.536 -3.623,-10.264 -5.556,-14.709 l 0,0 c -1.781,-4.093 -7.769,-8.231 -10.035,-1.857 l 0,0 c -1.237,3.478 -0.549,7.834 -0.138,11.412 l 0,0 c 2.146,18.634 2.911,40.044 -12.03,50.081 l 0,0 c 2.223,-12.129 -0.227,-28.026 -6.588,-40.831"
               style="fill:url(#linearGradient64);stroke:none"
               id="path70"
               inkscape:connector-curvature="0" /></g></g></g></g><g
       id="g72"><g
         id="g74"
         clip-path="url(#clipPath76)"><g
           id="g80"><g
             id="g82"><path
               d="m 480,509.75 c -3.902,14.775 -21.333,20.916 -27.102,22.15 l 0,0 c 3.524,-11.045 21.653,-28.775 12.466,-40.343 l 0,0 C 460,494.75 450.75,498 444.888,526.322 l 0,0 c -0.447,-1.009 -0.869,-2.029 -1.282,-3.055 l 0,0 c -4.715,-11.757 -7.108,-24.537 -8.779,-37.015 l 0,0 c -1.919,-14.325 -2.666,-29.379 9.123,-39.773 l 0,0 c 0.09,-0.08 0.184,-0.145 0.277,-0.198 l 0,0 c 7.12,-5.34 18.352,-6.55 26.877,-8.043 l 0,0 c 1.094,-0.192 1.961,0.814 1.829,1.71 l 0,0 c -0.002,0.017 0.001,0.034 -0.002,0.05 l 0,0 c -0.067,0.347 -0.275,0.674 -0.705,0.902 l 0,0 c -9.298,4.957 -21.351,16.475 -15.219,30.994 l 0,0 c 3.959,-6.117 10.863,-13.946 18.272,-13.606 l 0,0 c 0.711,0.032 1.563,0.643 1.457,1.456 l 0,0 c -1.344,10.187 -4.963,18.918 0.191,28.029 l 0,0 c 0.772,-7.079 1.74,-15.732 8.28,-19.065 l 0,0 c 6.029,-3.072 9.442,2.473 12.033,7.686 l 0,0 c -0.304,-5.602 -1.117,-11.232 -3.411,-16.318 l 0,0 c -2.142,-4.749 -6.268,-8.533 -9.319,-12.706 l 0,0 c -0.375,-0.513 -0.225,-1.159 0.133,-1.621 l 0,0 c 0.113,-0.145 0.245,-0.273 0.39,-0.372 l 0,0 c 13.247,-9.08 31.235,5.523 35.642,18.351 l 0,0 c 5.689,16.553 -1.594,32.695 -6.991,48.262 l 0,0 c -2.631,-2.776 -1.4,-10.99 -11.59,-14.825 l 0,0 c -7.315,-2.753 4.406,22.085 -6.337,38.848 l 0,0 c -4.708,7.347 -15.083,12.989 -23.004,14.868 l 0,0 c -0.007,0.002 -0.013,0.002 -0.018,0.002 l 0,0 c -0.684,0 21.665,-17.297 7.265,-41.133"
               style="fill:url(#linearGradient84);stroke:none"
               id="path90"
               inkscape:connector-curvature="0" /></g></g></g></g><g
       id="g92"><g
         id="g94"
         clip-path="url(#clipPath96)"><g
           id="g100"><g
             id="g102"><path
               d="m 453.901,704.201 c -0.345,-8.971 -6.298,-16.892 -10.518,-24.466 l 0,0 c -6.906,-12.39 -13.658,-26.148 -13.252,-40.673 l 0,0 c 0.632,-22.544 24.887,-35.906 45.143,-27.377 l 0,0 c -9.524,2.19 -19.618,11.222 -23.795,19.62 l 0,0 c -4.721,11.099 -4.16,21.978 5.501,29.245 l 0,0 c -0.667,-9.608 2.585,-21.303 11.02,-28.05 l 0,0 c 0.625,8.25 3.964,12.156 7.281,14.217 l 0,0 c -0.323,-4.209 0.027,-8.615 2.146,-12.258 l 0,0 c 2.489,-4.277 14.073,-11.834 20.198,-0.084 l 0,0 c 7.125,-9.25 -7.625,-17 -13.871,-21.328 l 0,0 c 2.052,-0.943 5.518,-0.158 7.646,0.028 l 0,0 c 5.823,0.508 11.493,1.955 16.889,4.182 l 0,0 c 9.139,3.771 14.162,9.468 16.431,18.934 l 0,0 c 6.155,25.684 -1.595,50.675 -16.47,55.554 l 0,0 c 5.625,-14.995 -2.229,-39.153 -7.25,-41.12 l 0,0 c 5.125,21.25 -10.079,40.81 -15.125,46 l 0,0 c 1,-24.75 -10.375,-33.875 -13.915,-34.124 l 0,0 c 3.211,12.177 1.452,27.517 -2.71,39.374 l 0,0 c -2.372,6.757 -9.625,17.375 -17.67,24.155 l 0,0 c 0.896,-7.268 2.603,-14.47 2.321,-21.829"
               style="fill:url(#linearGradient104);stroke:none"
               id="path110"
               inkscape:connector-curvature="0" /></g></g></g></g><g
       id="g112"><g
         id="g114"
         clip-path="url(#clipPath116)"><g
           id="g120"><g
             id="g122"><path
               d="m 109.443,693.009 c 2.886,-8.402 6.23,-16.061 6.838,-25.06 l 0,0 c 0.53,-7.847 -1.352,-15.539 -5.451,-22.076 l 0,0 c -0.19,-0.303 -0.359,-0.615 -0.557,-0.913 l 0,0 c 0.546,5.624 0.617,9.858 -7.273,20.54 l 0,0 c -7.89,10.681 -9.5,5.5 -14.5,23.25 l 0,0 c -11.25,-27 -0.263,-67.703 28.306,-76.47 l 0,0 c -1.994,4.282 -3.524,7.26 -3.556,11.908 l 0,0 c -0.032,4.646 2.936,6.45 6.652,10.473 l 0,0 c 2.962,3.208 4.389,11.626 4.468,16.339 l 0,0 c 4.568,-3.187 6.797,-6.334 8.213,-15.167 l 0,0 c 3.417,7.084 5.854,8.854 7.155,14.38 l 0,0 c 3.012,-4.463 3.978,-8.798 3.528,-14.112 l 0,0 c -0.45,-5.313 -1.828,-10.726 -15.738,-23.421 l 0,0 c 4.988,-1.211 21.32,6.827 22.854,15.698 l 0,0 c 1.534,8.872 0.527,11.63 2.313,17.129 l 0,0 c 0.516,1.585 1.215,3.164 2.22,4.748 l 0,0 c 6.927,10.914 13.977,25.191 6.406,39.468 l 0,0 c -3.071,-9.473 -10.336,-14.835 -17.003,-19.72 l 0,0 c -4.484,12.831 7.849,46.497 -6.151,49.83 l 0,0 C 136.5,705.5 129.833,695 124.37,688.5 l 0,0 c -8.037,11.166 -8.406,26.608 -10.703,33.834 l 0,0 c -6,-6.5 -7.889,-18.66 -4.224,-29.325"
               style="fill:url(#linearGradient124);stroke:none"
               id="path130"
               inkscape:connector-curvature="0" /></g></g></g></g><g
       id="g132"><g
         id="g134"
         clip-path="url(#clipPath136)"><g
           id="g140"><g
             id="g142"><path
               d="m 124.065,521.212 c -0.544,-2.27 -1.331,-4.423 -2.258,-6.506 l 0,0 c -4.64,-10.425 -13.145,-18.973 -16.408,-30.104 l 0,0 c -3.003,-10.242 -2.508,-21.186 3.263,-30.278 l 0,0 c 2.898,-4.563 7.04,-8.292 11.186,-11.687 l 0,0 c 3.075,-2.516 7.948,-4.879 12.613,-7.559 l 0,0 c 0.726,9.297 0.953,14.629 2.539,20.172 l 0,0 c 3.011,8.177 10.422,11.151 13.635,19.174 l 0,0 c 3.444,8.596 2.949,17.012 0.536,25.81 l 0,0 c -5.08,18.503 -14.621,35.698 -22.006,53.316 l 0,0 c -1.227,-9.675 -0.693,-22.303 -3.1,-32.338"
               style="fill:url(#linearGradient144);stroke:none"
               id="path150"
               inkscape:connector-curvature="0" /></g></g></g></g><g
       id="g152"><g
         id="g154"
         clip-path="url(#clipPath156)"><g
           id="g160"><g
             id="g162"><path
               d="m 121.342,202.871 c -0.609,-17.386 -0.774,-22.06 -5.955,-31.047 l 0,0 c -3.365,-5.838 -8.224,-10.789 -12.923,-15.577 l 0,0 c -4.908,-4.999 -9.981,-10.169 -13.487,-16.433 l 0,0 c -2.832,-5.061 -4.37,-14.341 -4.003,-22.792 l 0,0 c 0.248,-5.719 1.368,-11.059 3.549,-14.454 l 0,0 c 5.524,-8.595 16.827,-15.074 26.292,-15.074 l 0,0 c 3.14,0 5.831,0.724 7.998,2.151 l 0,0 0.567,0.375 0.849,0.559 -0.852,0.067 -0.839,0.067 c -0.047,0.003 -4.711,0.415 -9.32,4.356 l 0,0 c -5.905,5.049 -9.153,13.681 -9.426,25.011 l 0,0 c 3.62,-2.94 6.806,-5.335 9.909,-5.335 l 0,0 c 2.749,0 5.217,1.836 7.765,5.778 l 0,0 c 3.463,5.355 4.798,11.869 5.773,17.366 l 0,0 c 3.442,-5.393 5.75,-17.188 -1,-25.597 l 0,0 -0.792,-0.988 1.265,0.04 c 2.983,0.095 5.388,1.153 7.148,3.147 l 0,0 c 5.039,5.715 3.867,18.191 3.011,27.301 l 0,0 c -0.241,2.567 -0.458,4.878 -0.517,6.738 l 0,0 c 6.317,-9.779 8.808,-23.548 6.351,-35.663 l 0,0 c -1.334,-6.576 -4.753,-15.465 -13.356,-21.171 l 0,0 c -0.302,-0.201 -0.595,-0.408 -0.911,-0.601 l 0,0 c -0.013,-0.007 -0.026,-0.017 -0.04,-0.025 l 0,0 -0.876,-0.534 0.906,-0.479 c 1.867,-0.989 4.017,-1.49 6.393,-1.49 l 0,0 c 9.847,0 21.092,8.392 24.71,12.22 l 0,0 c 5.272,5.578 8.698,13.352 9.821,21.977 l 0,0 c 0.298,2.284 0.444,4.623 0.41,7 l 0,0 c -0.033,2.235 -0.065,4.377 -0.132,6.455 l 0,0 c -0.487,15.077 -2.859,26.709 -21.308,44.983 l 0,0 -0.798,0.789 -0.187,-1.106 c -1.237,-7.341 -2.829,-14.749 -7.122,-18.931 l 0,0 c 1.447,4.768 0.07,13.681 -2.776,20.182 l 0,0 c -2.006,4.587 -5.791,9.119 -9.128,13.118 l 0,0 c -2.407,2.886 -4.682,5.612 -5.871,7.869 l 0,0 -0.521,0.986 -0.5,0.951 -0.077,-2.189 z m -7.652,-87.542 c 0.016,0 0.031,0.002 0.046,0.002 l 0,0 c -0.011,0 -0.023,-0.003 -0.035,-0.003 l 0,0 c -0.004,0 -0.008,10e-4 -0.011,10e-4 m 21.012,-26.174 c 0.051,0 0.101,-0.004 0.153,-0.003 l 0,0 c -0.011,0 -0.022,-0.002 -0.034,-0.002 l 0,0 c -0.041,0 -0.079,0.005 -0.119,0.005 m -19.457,-1.066 c -0.143,-0.003 -0.285,-0.012 -0.43,-0.012 l 0,0 c -0.032,0 -0.065,0.004 -0.097,0.004 l 0,0 c 0.015,0 0.03,0 0.046,0 l 0,0 c 0.161,0 0.321,0.004 0.481,0.008"
               style="fill:url(#linearGradient164);stroke:none"
               id="path170"
               inkscape:connector-curvature="0" /></g></g></g></g><g
       id="g172"><g
         id="g174"
         clip-path="url(#clipPath176)"><g
           id="g180"
           transform="translate(307.1055,29.7783)"><path
             d="m 0,0 c -0.196,-0.428 -0.459,-0.74 -0.787,-0.947 -0.326,-0.208 -0.69,-0.312 -1.084,-0.312 -0.393,0 -0.753,0.109 -1.082,0.327 -0.331,0.217 -0.59,0.541 -0.779,0.97 -0.192,0.428 -0.288,0.949 -0.288,1.563 0,0.575 0.092,1.085 0.27,1.517 0.18,0.44 0.433,0.778 0.757,1.011 0.323,0.237 0.692,0.351 1.103,0.351 0.398,0 0.763,-0.114 1.096,-0.344 C -0.459,3.908 -0.196,3.578 0,3.146 0.193,2.715 0.292,2.2 0.292,1.601 0.292,0.961 0.193,0.426 0,0 M 1.479,9.517 C 1.141,9.517 0.877,9.397 0.691,9.162 0.508,8.926 0.416,8.574 0.416,8.114 l 0,-3.329 c -0.424,0.462 -0.855,0.805 -1.303,1.028 -0.447,0.223 -0.996,0.336 -1.644,0.336 -1.125,0 -2.03,-0.395 -2.718,-1.181 -0.687,-0.789 -1.032,-1.888 -1.032,-3.293 0,-0.671 0.084,-1.288 0.261,-1.861 0.172,-0.571 0.425,-1.073 0.763,-1.492 0.335,-0.425 0.733,-0.751 1.194,-0.981 0.459,-0.225 0.959,-0.344 1.499,-0.344 0.406,0 0.782,0.059 1.125,0.172 0.345,0.111 0.664,0.275 0.96,0.495 0.293,0.217 0.591,0.5 0.895,0.845 l 0,-0.221 c 0,-0.412 0.099,-0.732 0.302,-0.957 0.201,-0.223 0.452,-0.334 0.761,-0.334 0.316,0 0.57,0.11 0.769,0.325 0.198,0.214 0.299,0.535 0.299,0.966 l 0,9.94 C 2.547,8.655 2.454,8.972 2.271,9.192 2.086,9.408 1.822,9.517 1.479,9.517"
             style="fill:#231f20;fill-opacity:1;fill-rule:nonzero;stroke:none"
             id="path182"
             inkscape:connector-curvature="0" /></g><g
           id="g184"
           transform="translate(313.7988,32.084)"><path
             d="m 0,0 c 0.072,0.764 0.293,1.338 0.654,1.725 0.361,0.388 0.825,0.58 1.383,0.58 0.59,0 1.065,-0.191 1.422,-0.575 C 3.823,1.349 4.032,0.771 4.085,0 L 0,0 Z m 5.777,-1.027 c 0.325,0.169 0.491,0.538 0.491,1.105 0,0.609 -0.159,1.211 -0.473,1.8 C 5.479,2.466 5.008,2.945 4.379,3.318 3.748,3.691 2.992,3.874 2.113,3.874 1.437,3.874 0.817,3.766 0.264,3.549 -0.294,3.331 -0.762,3.02 -1.141,2.613 -1.521,2.204 -1.811,1.715 -2.008,1.146 c -0.198,-0.57 -0.299,-1.189 -0.299,-1.851 0,-1.418 0.407,-2.535 1.208,-3.362 0.802,-0.827 1.927,-1.242 3.376,-1.242 0.633,0 1.194,0.085 1.68,0.249 0.486,0.166 0.893,0.375 1.216,0.623 0.32,0.25 0.559,0.514 0.722,0.787 0.159,0.271 0.238,0.511 0.238,0.714 0,0.231 -0.072,0.411 -0.216,0.536 -0.142,0.125 -0.33,0.19 -0.56,0.19 -0.214,0 -0.38,-0.05 -0.497,-0.148 C 4.58,-2.622 4.352,-2.83 4.178,-2.987 3.999,-3.139 3.809,-3.282 3.599,-3.42 3.389,-3.555 3.174,-3.655 2.951,-3.719 2.729,-3.779 2.479,-3.813 2.212,-3.813 c -0.402,0 -0.769,0.1 -1.101,0.301 C 0.775,-3.316 0.509,-3.021 0.309,-2.631 0.106,-2.241 0.004,-1.789 0,-1.276 l 4.409,0 c 0.588,0 1.046,0.083 1.368,0.249"
             style="fill:#231f20;fill-opacity:1;fill-rule:nonzero;stroke:none"
             id="path186"
             inkscape:connector-curvature="0" /></g><g
           id="g188"
           transform="translate(327.873,31.666)"><path
             d="m 0,0 c -0.444,0.235 -1.018,0.438 -1.715,0.611 -0.59,0.142 -1.051,0.265 -1.387,0.363 -0.336,0.099 -0.603,0.224 -0.803,0.376 -0.197,0.152 -0.296,0.345 -0.296,0.582 0,0.256 0.136,0.473 0.405,0.647 0.271,0.175 0.608,0.262 1.015,0.262 0.397,0 0.711,-0.066 0.942,-0.2 0.234,-0.131 0.431,-0.307 0.603,-0.53 0.209,-0.261 0.395,-0.458 0.557,-0.593 0.161,-0.129 0.359,-0.198 0.592,-0.198 0.317,0 0.566,0.084 0.738,0.248 0.174,0.165 0.26,0.378 0.26,0.636 0,0.237 -0.083,0.477 -0.243,0.728 -0.161,0.249 -0.398,0.472 -0.71,0.674 -0.312,0.204 -0.7,0.366 -1.165,0.492 -0.466,0.119 -0.988,0.177 -1.574,0.177 -0.742,0 -1.375,-0.116 -1.904,-0.359 C -5.207,3.678 -5.607,3.357 -5.877,2.957 -6.147,2.554 -6.28,2.125 -6.28,1.678 c 0,-0.509 0.145,-0.933 0.436,-1.283 0.293,-0.345 0.681,-0.625 1.17,-0.837 0.487,-0.21 1.118,-0.413 1.893,-0.606 0.691,-0.165 1.181,-0.339 1.483,-0.521 0.3,-0.183 0.452,-0.471 0.452,-0.869 0,-0.256 -0.148,-0.489 -0.437,-0.685 -0.285,-0.203 -0.658,-0.305 -1.112,-0.305 -0.553,0 -0.994,0.101 -1.314,0.3 -0.32,0.197 -0.6,0.495 -0.828,0.899 -0.115,0.209 -0.238,0.371 -0.366,0.488 -0.126,0.113 -0.306,0.172 -0.544,0.172 -0.27,0 -0.493,-0.087 -0.67,-0.266 -0.175,-0.175 -0.263,-0.388 -0.263,-0.634 0,-0.374 0.14,-0.749 0.411,-1.12 0.276,-0.371 0.701,-0.681 1.281,-0.926 0.577,-0.249 1.272,-0.376 2.082,-0.376 0.847,0 1.569,0.12 2.162,0.344 0.589,0.231 1.034,0.565 1.339,1.009 0.302,0.444 0.455,0.976 0.455,1.598 0,0.411 -0.116,0.78 -0.344,1.103 C 0.777,-0.517 0.442,-0.239 0,0"
             style="fill:#231f20;fill-opacity:1;fill-rule:nonzero;stroke:none"
             id="path190"
             inkscape:connector-curvature="0" /></g><g
           id="g192"
           transform="translate(332.2441,35.9414)"><path
             d="m 0,0 c -0.328,0 -0.602,-0.11 -0.805,-0.338 -0.208,-0.223 -0.31,-0.558 -0.31,-1.006 l 0,-6.451 c 0,-0.44 0.102,-0.775 0.31,-1.014 0.203,-0.236 0.477,-0.357 0.805,-0.357 0.329,0 0.602,0.119 0.815,0.349 0.216,0.23 0.325,0.572 0.325,1.022 l 0,6.517 c 0,0.399 -0.109,0.717 -0.325,0.94 C 0.602,-0.11 0.329,0 0,0"
             style="fill:#231f20;fill-opacity:1;fill-rule:nonzero;stroke:none"
             id="path194"
             inkscape:connector-curvature="0" /></g><g
           id="g196"
           transform="translate(332.2686,39.1973)"><path
             d="m 0,0 c -0.302,0 -0.568,-0.104 -0.796,-0.312 -0.23,-0.205 -0.344,-0.466 -0.344,-0.787 0,-0.354 0.114,-0.627 0.334,-0.817 0.224,-0.193 0.491,-0.291 0.806,-0.291 0.302,0 0.563,0.101 0.784,0.295 0.222,0.196 0.331,0.467 0.331,0.813 0,0.358 -0.114,0.63 -0.339,0.82 C 0.548,-0.096 0.29,0 0,0"
             style="fill:#231f20;fill-opacity:1;fill-rule:nonzero;stroke:none"
             id="path198"
             inkscape:connector-curvature="0" /></g><g
           id="g200"
           transform="translate(341.4932,29.8711)"><path
             d="m 0,0 c -0.209,-0.404 -0.481,-0.711 -0.815,-0.91 -0.333,-0.199 -0.686,-0.301 -1.061,-0.301 -0.634,0 -1.148,0.234 -1.549,0.701 -0.4,0.468 -0.598,1.16 -0.598,2.073 0,0.906 0.194,1.599 0.583,2.089 0.388,0.492 0.903,0.736 1.548,0.736 0.659,0 1.194,-0.257 1.598,-0.766 C 0.108,3.109 0.313,2.393 0.313,1.474 0.313,0.895 0.207,0.404 0,0 M 1.427,6.07 C 1.122,6.07 0.876,5.967 0.686,5.748 0.493,5.535 0.396,5.232 0.396,4.84 l 0,-0.302 C -0.008,5.061 -0.441,5.443 -0.909,5.687 -1.378,5.934 -1.932,6.057 -2.566,6.057 -3.104,6.057 -3.594,5.96 -4.038,5.77 -4.487,5.579 -4.879,5.3 -5.221,4.925 -5.562,4.552 -5.824,4.091 -6.009,3.546 -6.193,2.999 -6.284,2.39 -6.284,1.715 c 0,-0.91 0.15,-1.712 0.455,-2.405 0.299,-0.696 0.734,-1.233 1.301,-1.62 0.562,-0.384 1.222,-0.577 1.974,-0.577 0.63,0 1.168,0.125 1.622,0.381 0.456,0.252 0.859,0.62 1.204,1.106 C 0.26,-2.141 0.243,-2.676 0.223,-3.006 0.2,-3.342 0.125,-3.651 -0.004,-3.945 c -0.132,-0.291 -0.356,-0.517 -0.68,-0.68 -0.319,-0.164 -0.774,-0.244 -1.356,-0.244 -0.286,0 -0.542,0.026 -0.761,0.079 -0.219,0.051 -0.41,0.13 -0.563,0.239 -0.159,0.109 -0.303,0.239 -0.43,0.391 -0.132,0.148 -0.257,0.299 -0.377,0.447 -0.248,0.292 -0.538,0.44 -0.865,0.44 -0.267,0 -0.494,-0.087 -0.68,-0.264 -0.186,-0.172 -0.28,-0.398 -0.28,-0.673 0,-0.362 0.167,-0.715 0.496,-1.061 0.329,-0.341 0.8,-0.623 1.412,-0.841 0.61,-0.217 1.307,-0.325 2.082,-0.325 0.847,0 1.556,0.084 2.124,0.253 0.57,0.172 1.033,0.434 1.383,0.787 0.353,0.353 0.609,0.797 0.767,1.338 0.161,0.54 0.241,1.183 0.241,1.931 l 0,6.55 C 2.509,4.956 2.438,5.364 2.296,5.645 2.148,5.928 1.86,6.07 1.427,6.07"
             style="fill:#231f20;fill-opacity:1;fill-rule:nonzero;stroke:none"
             id="path202"
             inkscape:connector-curvature="0" /></g><g
           id="g204"
           transform="translate(353.8936,34.457)"><path
             d="m 0,0 c -0.229,0.475 -0.581,0.839 -1.046,1.099 -0.471,0.258 -1,0.385 -1.596,0.385 -0.611,0 -1.153,-0.122 -1.622,-0.365 -0.473,-0.246 -0.904,-0.63 -1.299,-1.153 l 0,0.274 c 0,0.271 -0.049,0.496 -0.147,0.686 -0.095,0.185 -0.226,0.325 -0.383,0.419 -0.16,0.092 -0.34,0.139 -0.535,0.139 -0.328,0 -0.584,-0.103 -0.768,-0.314 C -7.584,0.956 -7.679,0.636 -7.679,0.206 l 0,-6.517 c 0,-0.44 0.104,-0.775 0.313,-1.013 0.211,-0.237 0.478,-0.358 0.803,-0.358 0.334,0 0.609,0.12 0.821,0.344 0.21,0.231 0.317,0.571 0.317,1.027 l 0,2.826 c 0,0.918 0.056,1.548 0.164,1.883 0.155,0.419 0.399,0.749 0.727,0.988 0.332,0.238 0.697,0.357 1.099,0.357 0.617,0 1.03,-0.198 1.236,-0.588 0.206,-0.395 0.307,-0.965 0.307,-1.708 l 0,-3.758 c 0,-0.44 0.106,-0.775 0.313,-1.013 0.213,-0.237 0.483,-0.358 0.818,-0.358 0.332,0 0.598,0.12 0.806,0.349 0.206,0.23 0.309,0.572 0.309,1.022 l 0,4.197 c 0,0.495 -0.021,0.902 -0.064,1.222 C 0.245,-0.572 0.147,-0.277 0,0"
             style="fill:#231f20;fill-opacity:1;fill-rule:nonzero;stroke:none"
             id="path206"
             inkscape:connector-curvature="0" /></g><g
           id="g208"
           transform="translate(358.377,32.084)"><path
             d="m 0,0 c 0.078,0.764 0.297,1.338 0.655,1.725 0.361,0.388 0.824,0.58 1.387,0.58 0.587,0 1.062,-0.191 1.423,-0.575 C 3.824,1.349 4.033,0.771 4.088,0 L 0,0 Z m 5.781,-1.027 c 0.323,0.169 0.485,0.538 0.485,1.105 0,0.609 -0.153,1.211 -0.469,1.8 C 5.482,2.466 5.012,2.945 4.38,3.318 3.748,3.691 2.994,3.874 2.116,3.874 1.437,3.874 0.82,3.766 0.266,3.549 -0.292,3.331 -0.76,3.02 -1.139,2.613 -1.519,2.204 -1.81,1.715 -2.007,1.146 c -0.194,-0.57 -0.299,-1.189 -0.299,-1.851 0,-1.418 0.406,-2.535 1.208,-3.362 0.805,-0.827 1.926,-1.242 3.377,-1.242 0.631,0 1.194,0.085 1.682,0.249 0.486,0.166 0.891,0.375 1.211,0.623 0.323,0.25 0.562,0.514 0.724,0.787 0.16,0.271 0.239,0.511 0.239,0.714 0,0.231 -0.073,0.411 -0.215,0.536 -0.145,0.125 -0.328,0.19 -0.561,0.19 -0.213,0 -0.38,-0.05 -0.497,-0.148 C 4.582,-2.622 4.354,-2.83 4.179,-2.987 4.002,-3.139 3.811,-3.282 3.601,-3.42 3.391,-3.555 3.174,-3.655 2.952,-3.719 2.729,-3.779 2.483,-3.813 2.213,-3.813 c -0.402,0 -0.768,0.1 -1.102,0.301 C 0.777,-3.316 0.509,-3.021 0.309,-2.631 0.106,-2.241 0.006,-1.789 0,-1.276 l 4.409,0 c 0.59,0 1.046,0.083 1.372,0.249"
             style="fill:#231f20;fill-opacity:1;fill-rule:nonzero;stroke:none"
             id="path210"
             inkscape:connector-curvature="0" /></g><g
           id="g212"
           transform="translate(372.3027,29.7783)"><path
             d="m 0,0 c -0.195,-0.428 -0.458,-0.74 -0.781,-0.947 -0.331,-0.208 -0.693,-0.312 -1.09,-0.312 -0.389,0 -0.751,0.109 -1.08,0.327 -0.332,0.217 -0.59,0.541 -0.779,0.97 -0.192,0.428 -0.287,0.949 -0.287,1.563 0,0.575 0.089,1.085 0.269,1.517 0.178,0.44 0.43,0.778 0.754,1.011 0.326,0.237 0.693,0.351 1.109,0.351 0.395,0 0.759,-0.114 1.092,-0.344 C -0.458,3.908 -0.195,3.578 0,3.146 0.195,2.715 0.297,2.2 0.297,1.601 0.297,0.961 0.195,0.426 0,0 M 1.482,9.517 C 1.138,9.517 0.879,9.397 0.695,9.162 0.51,8.926 0.416,8.574 0.416,8.114 l 0,-3.329 C -0.008,5.247 -0.44,5.59 -0.889,5.813 -1.334,6.036 -1.877,6.149 -2.528,6.149 -3.653,6.149 -4.561,5.754 -5.247,4.968 -5.936,4.179 -6.279,3.08 -6.279,1.675 c 0,-0.671 0.088,-1.288 0.26,-1.861 0.171,-0.571 0.431,-1.073 0.762,-1.492 0.337,-0.425 0.735,-0.751 1.193,-0.981 0.46,-0.225 0.96,-0.344 1.5,-0.344 0.405,0 0.783,0.059 1.127,0.172 0.343,0.111 0.664,0.275 0.957,0.495 0.296,0.217 0.595,0.5 0.896,0.845 l 0,-0.221 c 0,-0.412 0.102,-0.732 0.303,-0.957 0.201,-0.223 0.456,-0.334 0.763,-0.334 0.313,0 0.568,0.11 0.768,0.325 0.197,0.214 0.299,0.535 0.299,0.966 l 0,9.94 C 2.549,8.655 2.458,8.972 2.273,9.192 2.085,9.408 1.824,9.517 1.482,9.517"
             style="fill:#231f20;fill-opacity:1;fill-rule:nonzero;stroke:none"
             id="path214"
             inkscape:connector-curvature="0" /></g><g
           id="g216"
           transform="translate(387.2256,29.2598)"><path
             d="m 0,0 c -0.413,-0.492 -0.901,-0.74 -1.468,-0.74 -0.666,0 -1.202,0.242 -1.613,0.722 -0.412,0.482 -0.617,1.169 -0.617,2.069 0,0.609 0.096,1.138 0.291,1.58 0.191,0.444 0.456,0.783 0.791,1.016 0.338,0.238 0.718,0.352 1.148,0.352 0.42,0 0.785,-0.114 1.099,-0.352 C -0.056,4.414 0.185,4.084 0.356,3.652 0.528,3.223 0.612,2.713 0.612,2.119 0.612,1.198 0.409,0.492 0,0 M 1.097,6.134 C 0.532,6.489 -0.124,6.668 -0.873,6.668 -1.521,6.668 -2.066,6.552 -2.509,6.316 -2.948,6.082 -3.38,5.747 -3.804,5.304 l 0,3.442 c 0,0.415 -0.093,0.733 -0.281,0.957 -0.187,0.221 -0.453,0.332 -0.801,0.332 -0.331,0 -0.586,-0.117 -0.77,-0.349 C -5.843,9.452 -5.935,9.105 -5.935,8.647 l 0,-9.84 c 0,-0.428 0.096,-0.744 0.284,-0.965 0.191,-0.216 0.447,-0.326 0.765,-0.326 0.315,0 0.573,0.11 0.778,0.326 0.203,0.221 0.304,0.537 0.304,0.965 l 0,0.22 c 0.249,-0.283 0.446,-0.503 0.598,-0.643 0.151,-0.141 0.336,-0.28 0.55,-0.415 0.214,-0.136 0.474,-0.244 0.781,-0.326 0.305,-0.084 0.63,-0.127 0.977,-0.127 0.567,0 1.085,0.119 1.556,0.343 0.471,0.231 0.872,0.554 1.202,0.972 0.328,0.417 0.582,0.912 0.757,1.481 0.173,0.57 0.258,1.196 0.258,1.881 0,0.922 -0.154,1.724 -0.466,2.398 C 2.098,5.266 1.661,5.78 1.097,6.134"
             style="fill:#231f20;fill-opacity:1;fill-rule:nonzero;stroke:none"
             id="path218"
             inkscape:connector-curvature="0" /></g><g
           id="g220"
           transform="translate(398.7266,35.8066)"><path
             d="m 0,0 c -0.158,0.092 -0.32,0.135 -0.492,0.135 -0.235,0 -0.419,-0.04 -0.549,-0.122 C -1.17,-0.069 -1.293,-0.23 -1.41,-0.465 -1.523,-0.703 -1.654,-1.029 -1.796,-1.449 l -1.808,-5.16 -1.908,5.548 c -0.127,0.388 -0.274,0.678 -0.435,0.887 -0.167,0.206 -0.412,0.309 -0.738,0.309 -0.186,0 -0.366,-0.05 -0.542,-0.148 -0.171,-0.098 -0.308,-0.228 -0.408,-0.394 -0.097,-0.164 -0.149,-0.345 -0.149,-0.538 0,-0.183 0.085,-0.473 0.257,-0.875 l 2.773,-6.987 -0.203,-0.505 c -0.158,-0.365 -0.292,-0.648 -0.411,-0.835 -0.116,-0.189 -0.253,-0.324 -0.4,-0.4 -0.151,-0.078 -0.352,-0.115 -0.61,-0.115 -0.106,0 -0.229,0.015 -0.372,0.048 -0.116,0.032 -0.233,0.051 -0.357,0.051 -0.307,0 -0.541,-0.072 -0.696,-0.212 -0.159,-0.141 -0.234,-0.341 -0.234,-0.6 0,-0.379 0.166,-0.639 0.494,-0.784 0.33,-0.144 0.825,-0.214 1.484,-0.214 0.675,0 1.217,0.102 1.615,0.31 0.401,0.209 0.721,0.504 0.962,0.888 0.246,0.386 0.489,0.915 0.746,1.596 l 2.937,7.69 c 0.072,0.201 0.133,0.396 0.184,0.589 0.05,0.192 0.084,0.342 0.105,0.446 0,0.169 -0.042,0.331 -0.129,0.487 C 0.275,-0.214 0.156,-0.092 0,0"
             style="fill:#231f20;fill-opacity:1;fill-rule:nonzero;stroke:none"
             id="path222"
             inkscape:connector-curvature="0" /></g><g
           id="g224"
           transform="translate(438.9512,39.2949)"><path
             d="m 0,0 c -0.743,0 -1.329,-0.091 -1.755,-0.284 -0.427,-0.19 -0.732,-0.492 -0.908,-0.909 -0.178,-0.414 -0.269,-0.975 -0.269,-1.681 l 0,-0.678 -0.536,0 c -0.755,0 -1.132,-0.27 -1.132,-0.806 0,-0.245 0.089,-0.441 0.274,-0.59 0.18,-0.154 0.437,-0.229 0.776,-0.229 l 0.618,0 0,-5.971 c 0,-0.445 0.107,-0.784 0.321,-1.017 0.211,-0.235 0.474,-0.355 0.792,-0.355 0.338,0 0.612,0.12 0.824,0.355 0.21,0.233 0.318,0.572 0.318,1.017 l 0,5.971 0.554,0 c 0.401,0 0.716,0.05 0.946,0.147 0.225,0.102 0.34,0.335 0.34,0.705 0,0.514 -0.427,0.773 -1.286,0.773 l -0.554,0 0,0.539 c 0,0.444 0.058,0.787 0.173,1.028 0.117,0.24 0.378,0.357 0.784,0.357 0.151,0 0.331,-0.014 0.544,-0.046 0.214,-0.034 0.366,-0.052 0.453,-0.052 0.189,0 0.351,0.075 0.491,0.223 0.137,0.149 0.207,0.327 0.207,0.537 C 1.975,-0.321 1.315,0 0,0"
             style="fill:#231f20;fill-opacity:1;fill-rule:nonzero;stroke:none"
             id="path226"
             inkscape:connector-curvature="0" /></g><g
           id="g228"
           transform="translate(446.8037,35.5898)"><path
             d="M 0,0 C -0.447,0.235 -0.906,0.352 -1.379,0.352 -1.853,0.352 -2.23,0.235 -2.513,0 -2.797,-0.238 -3.073,-0.59 -3.345,-1.051 -3.363,-0.59 -3.453,-0.238 -3.616,0 c -0.165,0.235 -0.433,0.352 -0.81,0.352 -0.731,0 -1.098,-0.505 -1.098,-1.519 l 0,-6.276 c 0,-0.451 0.104,-0.792 0.315,-1.023 0.209,-0.229 0.474,-0.348 0.799,-0.348 0.331,0 0.603,0.119 0.82,0.343 0.214,0.231 0.321,0.572 0.321,1.028 l 0,1.885 c 0,0.675 0.02,1.249 0.066,1.72 0.044,0.472 0.125,0.876 0.239,1.218 0.113,0.342 0.279,0.6 0.486,0.773 0.208,0.171 0.478,0.259 0.811,0.259 0.24,0 0.521,-0.051 0.838,-0.151 0.314,-0.101 0.518,-0.154 0.6,-0.154 0.219,0 0.42,0.091 0.61,0.268 0.194,0.18 0.285,0.405 0.285,0.681 0,0.39 -0.22,0.706 -0.666,0.944"
             style="fill:#231f20;fill-opacity:1;fill-rule:nonzero;stroke:none"
             id="path230"
             inkscape:connector-curvature="0" /></g><g
           id="g232"
           transform="translate(450.166,32.084)"><path
             d="M 0,0 C 0.078,0.764 0.295,1.338 0.656,1.725 1.015,2.113 1.477,2.305 2.04,2.305 2.628,2.305 3.103,2.114 3.462,1.73 3.825,1.349 4.028,0.771 4.086,0 L 0,0 Z m 5.779,-1.027 c 0.326,0.169 0.487,0.538 0.487,1.105 0,0.609 -0.16,1.211 -0.472,1.8 C 5.482,2.466 5.01,2.945 4.379,3.318 3.748,3.691 2.991,3.874 2.112,3.874 1.437,3.874 0.821,3.766 0.264,3.549 -0.293,3.331 -0.761,3.02 -1.143,2.613 -1.521,2.204 -1.811,1.715 -2.008,1.146 c -0.196,-0.57 -0.3,-1.189 -0.3,-1.851 0,-1.418 0.406,-2.535 1.207,-3.362 0.804,-0.827 1.928,-1.242 3.376,-1.242 0.634,0 1.198,0.085 1.68,0.249 0.49,0.166 0.896,0.375 1.218,0.623 0.319,0.25 0.558,0.514 0.719,0.787 0.162,0.271 0.24,0.511 0.24,0.714 0,0.231 -0.07,0.411 -0.213,0.536 -0.143,0.125 -0.332,0.19 -0.559,0.19 -0.214,0 -0.383,-0.05 -0.5,-0.148 C 4.584,-2.622 4.352,-2.83 4.177,-2.987 4.002,-3.139 3.809,-3.282 3.596,-3.42 3.389,-3.555 3.174,-3.655 2.95,-3.719 2.728,-3.779 2.48,-3.813 2.21,-3.813 c -0.398,0 -0.766,0.1 -1.102,0.301 -0.335,0.196 -0.6,0.491 -0.801,0.881 C 0.108,-2.241 0.003,-1.789 0,-1.276 l 4.407,0 c 0.59,0 1.045,0.083 1.372,0.249"
             style="fill:#231f20;fill-opacity:1;fill-rule:nonzero;stroke:none"
             id="path234"
             inkscape:connector-curvature="0" /></g><g
           id="g236"
           transform="translate(460.2139,32.084)"><path
             d="M 0,0 C 0.074,0.764 0.299,1.338 0.654,1.725 1.019,2.113 1.477,2.305 2.04,2.305 2.627,2.305 3.103,2.114 3.463,1.73 3.823,1.349 4.032,0.771 4.086,0 L 0,0 Z m 5.779,-1.027 c 0.325,0.169 0.487,0.538 0.487,1.105 0,0.609 -0.157,1.211 -0.47,1.8 C 5.482,2.466 5.01,2.945 4.381,3.318 3.749,3.691 2.995,3.874 2.112,3.874 1.437,3.874 0.819,3.766 0.263,3.549 -0.294,3.331 -0.76,3.02 -1.139,2.613 -1.52,2.204 -1.808,1.715 -2.009,1.146 c -0.197,-0.57 -0.294,-1.189 -0.294,-1.851 0,-1.418 0.402,-2.535 1.203,-3.362 0.805,-0.827 1.93,-1.242 3.379,-1.242 0.632,0 1.192,0.085 1.678,0.249 0.489,0.166 0.893,0.375 1.217,0.623 0.319,0.25 0.561,0.514 0.723,0.787 0.156,0.271 0.235,0.511 0.235,0.714 0,0.231 -0.07,0.411 -0.213,0.536 -0.144,0.125 -0.329,0.19 -0.56,0.19 -0.217,0 -0.38,-0.05 -0.495,-0.148 C 4.582,-2.622 4.354,-2.83 4.178,-2.987 4.003,-3.139 3.808,-3.282 3.601,-3.42 3.39,-3.555 3.174,-3.655 2.951,-3.719 2.728,-3.779 2.48,-3.813 2.212,-3.813 c -0.402,0 -0.769,0.1 -1.103,0.301 -0.332,0.196 -0.6,0.491 -0.8,0.881 C 0.108,-2.241 0.006,-1.789 0,-1.276 l 4.409,0 c 0.592,0 1.046,0.083 1.37,0.249"
             style="fill:#231f20;fill-opacity:1;fill-rule:nonzero;stroke:none"
             id="path238"
             inkscape:connector-curvature="0" /></g><g
           id="g240"
           transform="translate(474.3662,29.8242)"><path
             d="m 0,0 c -0.195,-0.435 -0.448,-0.761 -0.77,-0.978 -0.316,-0.218 -0.665,-0.327 -1.038,-0.327 -0.629,0 -1.151,0.248 -1.579,0.748 -0.424,0.498 -0.634,1.197 -0.634,2.091 0,0.955 0.211,1.675 0.64,2.165 0.425,0.491 0.953,0.736 1.573,0.736 0.393,0 0.746,-0.115 1.069,-0.345 C -0.417,3.862 -0.164,3.537 0.016,3.109 0.198,2.683 0.288,2.172 0.288,1.577 0.288,0.958 0.19,0.434 0,0 m 0.661,5.564 c -0.583,0.361 -1.223,0.54 -1.917,0.54 -0.578,0 -1.093,-0.124 -1.552,-0.37 C -3.262,5.49 -3.702,5.107 -4.128,4.585 l 0,0.269 c 0,0.407 -0.101,0.721 -0.302,0.94 -0.201,0.22 -0.462,0.323 -0.781,0.323 C -5.537,6.117 -5.79,6.014 -5.98,5.803 -6.162,5.589 -6.257,5.269 -6.257,4.839 l 0,-9.727 c 0,-0.487 0.068,-0.863 0.205,-1.117 0.138,-0.257 0.418,-0.386 0.841,-0.386 0.721,0 1.083,0.493 1.083,1.485 l 0,3.389 c 0.395,-0.504 0.814,-0.883 1.249,-1.14 0.441,-0.26 0.981,-0.392 1.623,-0.392 0.535,0 1.035,0.107 1.498,0.322 0.467,0.207 0.867,0.512 1.21,0.907 0.343,0.391 0.611,0.881 0.807,1.463 0.195,0.581 0.292,1.216 0.292,1.912 0,0.942 -0.168,1.753 -0.505,2.442 -0.341,0.687 -0.8,1.208 -1.385,1.567"
             style="fill:#231f20;fill-opacity:1;fill-rule:nonzero;stroke:none"
             id="path242"
             inkscape:connector-curvature="0" /></g><g
           id="g244"
           transform="translate(479.8398,35.9414)"><path
             d="m 0,0 c -0.33,0 -0.597,-0.11 -0.805,-0.338 -0.207,-0.223 -0.308,-0.558 -0.308,-1.006 l 0,-6.451 c 0,-0.44 0.101,-0.775 0.308,-1.014 0.208,-0.236 0.475,-0.357 0.805,-0.357 0.331,0 0.601,0.119 0.817,0.349 0.216,0.23 0.323,0.572 0.323,1.022 l 0,6.517 c 0,0.399 -0.107,0.717 -0.323,0.94 C 0.601,-0.11 0.331,0 0,0"
             style="fill:#231f20;fill-opacity:1;fill-rule:nonzero;stroke:none"
             id="path246"
             inkscape:connector-curvature="0" /></g><g
           id="g248"
           transform="translate(479.8662,39.1973)"><path
             d="m 0,0 c -0.302,0 -0.571,-0.104 -0.798,-0.312 -0.227,-0.205 -0.342,-0.466 -0.342,-0.787 0,-0.354 0.114,-0.627 0.335,-0.817 0.219,-0.193 0.491,-0.291 0.805,-0.291 0.303,0 0.565,0.101 0.785,0.295 0.218,0.196 0.328,0.467 0.328,0.813 0,0.358 -0.113,0.63 -0.338,0.82 C 0.548,-0.096 0.292,0 0,0"
             style="fill:#231f20;fill-opacity:1;fill-rule:nonzero;stroke:none"
             id="path250"
             inkscape:connector-curvature="0" /></g><g
           id="g252"
           transform="translate(490.7471,28.9482)"><path
             d="m 0,0 -2.311,3.635 1.197,1.098 c 0.612,0.548 0.919,0.991 0.919,1.319 0,0.271 -0.096,0.494 -0.283,0.672 -0.188,0.181 -0.421,0.269 -0.702,0.269 -0.235,0 -0.436,-0.058 -0.605,-0.178 C -1.947,6.689 -2.186,6.467 -2.5,6.134 l -2.534,-2.657 0,5.467 c 0,0.46 -0.105,0.812 -0.307,1.048 -0.204,0.236 -0.477,0.355 -0.823,0.355 -0.36,0 -0.636,-0.131 -0.83,-0.393 -0.193,-0.26 -0.287,-0.642 -0.287,-1.142 l 0,-9.614 c 0,-0.45 0.099,-0.792 0.297,-1.022 0.199,-0.23 0.469,-0.349 0.82,-0.349 0.294,0 0.558,0.119 0.787,0.355 0.229,0.233 0.343,0.566 0.343,1.003 l 0,1.792 1.221,1.155 1.989,-3.27 c 0.253,-0.392 0.454,-0.659 0.603,-0.81 0.149,-0.149 0.363,-0.225 0.637,-0.225 0.316,0 0.576,0.104 0.769,0.313 0.197,0.208 0.296,0.486 0.296,0.845 0,0.127 -0.039,0.261 -0.113,0.401 C 0.295,-0.472 0.171,-0.268 0,0"
             style="fill:#231f20;fill-opacity:1;fill-rule:nonzero;stroke:none"
             id="path254"
             inkscape:connector-curvature="0" /></g><g
           id="g256"
           transform="translate(494.4736,29.2627)"><path
             d="m 0,0 c -0.345,0 -0.64,-0.121 -0.878,-0.365 -0.235,-0.239 -0.353,-0.53 -0.353,-0.865 0,-0.397 0.125,-0.704 0.372,-0.924 0.248,-0.222 0.544,-0.333 0.883,-0.333 0.329,0 0.615,0.111 0.863,0.334 0.244,0.224 0.367,0.529 0.367,0.923 0,0.343 -0.123,0.631 -0.367,0.873 C 0.639,-0.119 0.344,0 0,0"
             style="fill:#231f20;fill-opacity:1;fill-rule:nonzero;stroke:none"
             id="path258"
             inkscape:connector-curvature="0" /></g><g
           id="g260"
           transform="translate(505.4209,30.5488)"><path
             d="m 0,0 c -0.231,0 -0.425,-0.069 -0.586,-0.214 -0.16,-0.139 -0.308,-0.342 -0.444,-0.593 -0.251,-0.431 -0.534,-0.749 -0.854,-0.959 -0.325,-0.209 -0.713,-0.312 -1.163,-0.312 -0.333,0 -0.645,0.067 -0.926,0.193 -0.277,0.13 -0.522,0.319 -0.715,0.57 -0.199,0.251 -0.351,0.553 -0.458,0.908 -0.104,0.354 -0.155,0.746 -0.155,1.169 0,0.9 0.204,1.614 0.613,2.134 0.406,0.52 0.942,0.782 1.608,0.782 0.462,0 0.845,-0.108 1.145,-0.315 0.301,-0.211 0.587,-0.524 0.863,-0.942 0.153,-0.215 0.293,-0.37 0.416,-0.463 0.124,-0.099 0.279,-0.147 0.467,-0.147 0.286,0 0.53,0.093 0.727,0.28 0.204,0.187 0.304,0.417 0.304,0.684 0,0.265 -0.09,0.551 -0.266,0.856 -0.18,0.305 -0.44,0.593 -0.777,0.865 -0.339,0.268 -0.754,0.487 -1.24,0.659 -0.488,0.171 -1.022,0.254 -1.606,0.254 -0.94,0 -1.75,-0.193 -2.424,-0.582 C -6.148,4.442 -6.67,3.893 -7.027,3.183 -7.384,2.472 -7.561,1.654 -7.561,0.729 c 0,-1.365 0.391,-2.454 1.173,-3.266 0.78,-0.813 1.867,-1.216 3.257,-1.216 0.658,0 1.247,0.086 1.771,0.261 0.519,0.177 0.955,0.409 1.301,0.698 0.34,0.291 0.597,0.597 0.764,0.913 0.169,0.32 0.255,0.621 0.255,0.902 0,0.236 -0.092,0.455 -0.276,0.667 C 0.505,-0.103 0.277,0 0,0"
             style="fill:#231f20;fill-opacity:1;fill-rule:nonzero;stroke:none"
             id="path262"
             inkscape:connector-curvature="0" /></g><g
           id="g264"
           transform="translate(513.9141,29.2256)"><path
             d="m 0,0 c -0.406,-0.514 -0.948,-0.771 -1.633,-0.771 -0.45,0 -0.841,0.118 -1.176,0.35 -0.332,0.234 -0.589,0.572 -0.768,1.012 -0.178,0.441 -0.268,0.952 -0.268,1.542 0,0.596 0.09,1.117 0.272,1.563 0.181,0.446 0.442,0.78 0.775,1.011 0.34,0.229 0.727,0.343 1.165,0.343 C -0.948,5.05 -0.406,4.793 0,4.282 0.402,3.769 0.604,3.054 0.604,2.133 0.604,1.228 0.402,0.514 0,0 M 1.655,5.446 C 1.261,5.854 0.781,6.166 0.226,6.388 -0.33,6.607 -0.948,6.716 -1.633,6.716 -2.303,6.716 -2.916,6.612 -3.473,6.393 -4.029,6.174 -4.504,5.864 -4.893,5.462 -5.283,5.06 -5.585,4.578 -5.791,4.009 -6.004,3.44 -6.105,2.815 -6.105,2.133 c 0,-0.675 0.101,-1.294 0.309,-1.855 0.206,-0.555 0.509,-1.04 0.908,-1.45 0.399,-0.415 0.872,-0.724 1.415,-0.945 0.545,-0.222 1.16,-0.333 1.84,-0.333 0.69,0 1.307,0.11 1.859,0.326 0.551,0.222 1.024,0.534 1.42,0.938 0.395,0.409 0.701,0.893 0.911,1.463 0.207,0.568 0.31,1.187 0.31,1.856 0,0.68 -0.103,1.297 -0.306,1.858 C 2.353,4.552 2.05,5.038 1.655,5.446"
             style="fill:#231f20;fill-opacity:1;fill-rule:nonzero;stroke:none"
             id="path266"
             inkscape:connector-curvature="0" /></g><g
           id="g268"
           transform="translate(531.042,34.5205)"><path
             d="m 0,0 c -0.223,0.452 -0.552,0.8 -0.996,1.045 -0.448,0.241 -0.979,0.362 -1.596,0.362 -0.528,0 -1.012,-0.113 -1.444,-0.336 -0.438,-0.223 -0.842,-0.566 -1.222,-1.028 -0.263,0.458 -0.6,0.798 -1.01,1.026 -0.403,0.225 -0.891,0.338 -1.46,0.338 -0.544,0 -1.038,-0.113 -1.487,-0.332 -0.445,-0.22 -0.862,-0.566 -1.251,-1.032 l 0,0.214 c 0,0.365 -0.105,0.646 -0.315,0.855 -0.203,0.206 -0.461,0.309 -0.771,0.309 -0.316,0 -0.577,-0.109 -0.771,-0.328 -0.198,-0.222 -0.294,-0.543 -0.294,-0.968 l 0,-6.446 c 0,-0.471 0.111,-0.824 0.326,-1.062 0.219,-0.241 0.5,-0.362 0.839,-0.362 0.348,0 0.625,0.121 0.838,0.362 0.212,0.238 0.319,0.591 0.319,1.062 l 0,3.046 c 0,0.944 0.115,1.671 0.351,2.179 0.231,0.505 0.717,0.758 1.457,0.758 0.368,0 0.64,-0.099 0.808,-0.302 0.169,-0.199 0.277,-0.456 0.315,-0.77 0.038,-0.316 0.059,-0.752 0.059,-1.32 l 0,-3.591 c 0,-0.475 0.105,-0.828 0.318,-1.067 0.21,-0.236 0.488,-0.357 0.83,-0.357 0.35,0 0.636,0.121 0.85,0.357 0.213,0.239 0.321,0.592 0.321,1.067 l 0,2.995 c 0,0.968 0.084,1.636 0.246,2.014 0.15,0.299 0.36,0.535 0.624,0.709 0.268,0.179 0.551,0.265 0.849,0.265 0.367,0 0.644,-0.097 0.823,-0.297 0.179,-0.196 0.293,-0.442 0.337,-0.732 0.038,-0.295 0.06,-0.683 0.06,-1.165 l 0,-3.789 c 0,-0.471 0.11,-0.824 0.326,-1.062 0.218,-0.241 0.5,-0.362 0.838,-0.362 0.354,0 0.637,0.121 0.85,0.357 0.215,0.239 0.322,0.592 0.322,1.067 l 0,4.4 C 0.289,-1.045 0.195,-0.407 0,0"
             style="fill:#231f20;fill-opacity:1;fill-rule:nonzero;stroke:none"
             id="path270"
             inkscape:connector-curvature="0" /></g><g
           id="g272"
           transform="translate(414.333,39.9404)"><path
             d="M 0,0 C 1.021,0.446 2.109,0.603 3.211,0.622 4.178,0.638 5.155,0.548 6.104,0.457 6.172,0.722 6.239,0.992 6.306,1.257 5.391,1.67 4.385,1.823 3.389,1.814 3.341,1.958 3.293,2.103 3.243,2.248 4.002,2.315 4.512,3.221 4.138,3.896 3.971,4.275 3.598,4.487 3.211,4.52 2.818,4.552 2.41,4.4 2.186,4.053 1.701,3.438 2.08,2.464 2.818,2.27 2.861,2.114 2.906,1.958 2.952,1.8 1.817,1.732 0.659,1.479 -0.291,0.827 -0.192,0.553 -0.098,0.277 0,0"
             style="fill:#231f20;fill-opacity:1;fill-rule:nonzero;stroke:none"
             id="path274"
             inkscape:connector-curvature="0" /></g><g
           id="g276"
           transform="translate(429.1465,38.6533)"><path
             d="m 0,0 c -0.305,-0.156 -0.361,-0.518 -0.345,-0.825 -0.337,-0.33 -0.177,-0.825 -0.216,-1.238 -0.075,-0.231 -0.351,-0.259 -0.543,-0.344 -0.267,0.405 -0.548,0.794 -0.903,1.125 l 0.001,0.018 c -0.386,0.363 -0.805,0.69 -1.247,0.979 -0.357,-0.381 -0.729,-0.752 -1.072,-1.151 0.676,-0.745 1.304,-1.541 1.855,-2.382 0.38,-0.642 0.689,-1.321 0.954,-2.016 0.572,0.291 1.135,0.598 1.703,0.897 -0.298,0.696 -0.645,1.376 -1.01,2.043 0.254,0.135 0.594,0.27 0.631,0.6 0.032,0.363 -0.053,0.758 0.17,1.08 0.438,-0.291 1.111,0.039 1.118,0.574 C 1.151,-0.087 0.457,0.317 0,0"
             style="fill:#231f20;fill-opacity:1;fill-rule:nonzero;stroke:none"
             id="path278"
             inkscape:connector-curvature="0" /></g><g
           id="g280"
           transform="translate(424.6641,34.0293)"><path
             d="m 0,0 c -0.134,-0.925 -1.023,-1.716 -1.97,-1.654 -0.551,-0.045 -1.082,0.216 -1.454,0.602 -0.268,0.331 -0.489,0.717 -0.525,1.152 -0.128,0.944 0.536,1.916 1.459,2.141 C -2.082,2.354 -1.659,2.294 -1.259,2.2 -0.389,1.892 0.182,0.909 0,0 m -8.347,-1.957 c -0.374,-0.542 -0.909,-0.966 -1.525,-1.201 -1.159,-0.431 -2.568,-0.14 -3.4,0.787 -0.582,0.642 -0.929,1.502 -0.865,2.371 0.043,1.089 0.714,2.098 1.668,2.607 0.726,0.396 1.607,0.466 2.396,0.245 0.332,-0.085 0.64,-0.242 0.926,-0.431 0.582,-0.416 1.024,-1.03 1.214,-1.723 0.277,-0.886 0.105,-1.886 -0.414,-2.655 M -1.25,3.892 C -2.519,5.006 -4.159,5.758 -5.864,5.747 -6.281,5.752 -6.702,5.738 -7.12,5.717 -8.859,5.616 -10.583,5.258 -12.182,4.561 -14.05,3.74 -15.677,2.28 -16.5,0.383 c -0.793,-1.699 -0.783,-3.659 -0.425,-5.467 1.984,-0.497 3.996,-0.939 6.04,-1.037 1.253,-0.037 2.512,-0.071 3.765,-0.022 0.763,0.029 1.525,0.087 2.286,0.194 2.752,0.362 5.447,1.236 7.848,2.64 0,0 -0.329,1.811 -1.623,3.788 -0.744,1.233 -1.549,2.46 -2.641,3.413"
             style="fill:#231f20;fill-opacity:1;fill-rule:nonzero;stroke:none"
             id="path282"
             inkscape:connector-curvature="0" /></g><g
           id="g284"
           transform="translate(408.1895,37.2676)"><path
             d="m 0,0 c -0.805,-0.486 -1.468,-1.172 -2.02,-1.926 -0.164,0.296 -0.209,0.654 -0.419,0.923 -0.122,0.158 -0.334,0.095 -0.502,0.098 -0.213,-0.024 -0.422,0.034 -0.624,0.094 0.235,0.332 0.174,0.842 -0.188,1.059 -0.385,0.273 -0.979,0.035 -1.083,-0.423 -0.16,-0.503 0.372,-1.008 0.864,-0.874 0.263,-0.386 0.736,-0.324 1.138,-0.34 0.184,-0.313 0.318,-0.66 0.553,-0.942 -0.432,-0.856 -0.675,-1.806 -0.694,-2.761 0.551,-0.23 1.105,-0.468 1.661,-0.698 0.029,0.601 0.097,1.201 0.191,1.794 0.185,1.292 0.934,2.418 1.82,3.343 C 0.477,-0.423 0.233,-0.22 0,0"
             style="fill:#231f20;fill-opacity:1;fill-rule:nonzero;stroke:none"
             id="path286"
             inkscape:connector-curvature="0" /></g><g
           id="g288"
           transform="translate(417.5439,27.043)"><path
             d="m 0,0 c -0.879,-0.046 -1.76,-0.051 -2.637,-0.012 -1.412,0.073 -2.821,0.202 -4.201,0.507 -0.98,0.2 -1.936,0.484 -2.898,0.757 0.154,-1.231 0.65,-2.406 1.359,-3.415 0.838,-1.177 1.957,-2.257 3.35,-2.693 1.085,-0.29 2.381,-0.666 4.614,-0.629 0.138,0.003 0.274,0.01 0.413,0.014 1.703,0.062 3.367,0.306 4.869,0.943 1.043,0.452 2.024,1.063 2.864,1.831 0.728,0.682 1.297,1.538 1.69,2.458 0.382,0.866 0.723,2.42 0.686,3.22 C 8.114,1.842 5.877,0.854 3.601,0.469 2.415,0.212 1.209,0.065 0,0"
             style="fill:#231f20;fill-opacity:1;fill-rule:nonzero;stroke:none"
             id="path290"
             inkscape:connector-curvature="0" /></g></g></g><g
       id="g292"><g
         id="g294"
         clip-path="url(#clipPath296)"><g
           id="g300"><g
             id="g302"><path
               d="m 638.351,331.352 c -0.4,6.842 -0.83,11.567 -4.426,18.116 l 0,0 c -0.811,-12.434 -10.31,-22.566 -12.883,-35.023 l 0,0 c -3.485,-16.866 2.609,-29.216 25.746,-42.261 l 0,0 c -0.016,0.017 -0.004,0.014 0.008,0.012 l 0,0 c -7.26,15.122 -3.387,23.787 2.201,31.954 l 0,0 c 6.12,8.947 7.697,17.806 7.697,17.806 l 0,0 c 0,0 0.014,-0.019 0.019,-0.024 l 0,0 c 0.002,0.009 0.007,0.036 0.007,0.036 l 0,0 c 0,0 4.803,-6.246 2.893,-16.017 l 0,0 c 8.475,9.466 10.073,24.512 8.793,30.282 l 0,0 c 0.01,-0.008 0.02,-0.017 0.031,-0.025 l 0,0 c -0.002,0.011 -0.003,0.026 -0.005,0.037 l 0,0 c 19.215,-13.429 27.427,-42.506 16.361,-64.054 l 0,0 c 58.828,33.308 14.617,83.13 6.919,88.743 l 0,0 c 2.566,-5.614 3.053,-15.119 -2.133,-19.73 l 0,0 c -8.777,33.282 -30.478,40.103 -30.478,40.103 l 0,0 c 2.567,-17.163 -9.301,-35.931 -20.75,-49.955"
               style="fill:url(#linearGradient304);stroke:none"
               id="path310"
               inkscape:connector-curvature="0" /></g></g></g></g><g
       id="g312"><g
         id="g314"
         clip-path="url(#clipPath316)"><g
           id="g320"><g
             id="g322"><path
               d="m 670.307,532.573 c -0.208,-0.863 -0.442,-1.718 -0.665,-2.593 l 0,0 c -1.922,-9.135 -1.08,-19.251 3.811,-27.542 l 0,0 c 0.353,-0.629 0.706,-1.282 1.039,-1.952 l 0,0 c 0.666,-1.341 1.25,-2.744 1.674,-4.262 l 0,0 c 0.314,-0.611 0.59,-1.263 0.822,-1.945 l 0,0 c 1.625,-4.769 1.165,-10.947 -2.524,-13.897 l 0,0 c 1.264,2.529 1.467,5.285 0.958,8.048 l 0,0 c -0.171,0.921 -0.42,1.841 -0.732,2.744 l 0,0 c -0.689,2.571 -1.996,4.763 -3.582,6.774 l 0,0 c -0.529,0.671 -1.089,1.323 -1.666,1.961 l 0,0 c -4.252,4.077 -9.309,8.292 -9.309,15.035 l 0,0 c -2.529,-1.686 -3.372,-5.9 -1.767,-8.563 l 0,0 c 0.223,-0.843 0.491,-1.689 0.776,-2.529 l 0,0 c 1.998,-5.884 4.783,-11.457 1.833,-15.884 l 0,0 c -4.214,-6.743 -7.587,8.431 -12.644,12.646 l 0,0 c 0.843,-2.529 2.528,-5.059 1.709,-7.219 l 0,0 c 0.026,-0.667 0.075,-1.388 0.174,-2.409 l 0,0 c -0.068,-0.722 -0.184,-1.432 -0.338,-2.143 l 0,0 c -0.773,-3.551 -2.529,-7.071 -4.355,-11.583 l 0,0 c -0.175,-0.875 -0.315,-1.759 -0.422,-2.648 l 0,0 c -0.741,-6.225 0.215,-12.738 2.707,-18.371 l 0,0 c 0.389,-0.629 0.818,-1.26 1.286,-1.886 l 0,0 c 1.767,-2.635 5.14,-4.322 7.302,-5.659 l 0,0 c 0.736,-0.374 1.491,-0.714 2.26,-1.017 l 0,0 c 0.672,-0.266 1.356,-0.495 2.047,-0.708 l 0,0 c -2.274,1.923 -4.157,3.806 -5.034,4.862 l 0,0 c -4.614,5.218 0.371,15.604 3.836,21.062 l 0,0 c 3.299,5.581 7.671,9.861 3.811,17.303 l 0,0 c 3.85,-2.174 7.427,-4.689 8.71,-9.846 l 0,0 c 1.116,-4.493 -1.836,-8.088 -2.927,-12.227 l 0,0 C 666.5,455.167 680.5,457.666 682.5,463.833 l 0,0 c 2,6.167 5.751,6.742 7.833,7.667 l 0,0 c -2.205,-2.579 -1.001,-7.5 -0.5,-12 l 0,0 c 0.501,-4.5 -4.451,-8.17 -9.177,-12.707 l 0,0 c 2.56,0.611 5.023,1.423 7.296,2.397 l 0,0 c 0.843,0.527 1.653,1.097 2.429,1.706 l 0,0 c 11.633,9.124 15.504,26.929 6.316,39.17 l 0,0 c -0.49,0.813 -0.99,1.613 -1.488,2.41 l 0,0 c -1.99,3.192 -3.995,6.338 -5.312,9.653 l 0,0 c -0.34,0.824 -0.663,1.645 -0.965,2.47 l 0,0 c -2.116,5.749 -3.251,11.689 -1.305,18.089 l 0,0 c 0.326,0.86 0.724,1.698 1.197,2.517 l 0,0 c 0.475,0.815 1.026,1.612 1.657,2.384 l 0,0 c -2.023,-0.759 -3.97,-1.972 -5.613,-3.505 l 0,0 c -0.549,-0.512 -1.063,-1.059 -1.534,-1.638 l 0,0 c -0.743,-0.821 -1.404,-1.859 -1.928,-3.019 l 0,0 c -0.262,-0.581 -0.486,-1.192 -0.668,-1.826 l 0,0 c -0.373,-3.5 -1.216,-6.872 1.313,-9.4 l 0,0 c -4.215,3.372 -3.371,8.43 -2.18,12.605 l 0,0 c 0.183,0.522 0.375,1.042 0.569,1.562 l 0,0 c 0.19,0.52 0.384,1.041 0.574,1.562 l 0,0 c 0.251,0.696 0.494,1.396 0.716,2.105 l 0,0 c 3.694,11.671 -3.894,26.002 -15.697,28.531 l 0,0 c 5.692,-5.691 6.165,-14.226 4.274,-21.993"
               style="fill:url(#linearGradient324);stroke:none"
               id="path330"
               inkscape:connector-curvature="0" /></g></g></g></g><g
       id="g332"><g
         id="g334"
         clip-path="url(#clipPath336)"><g
           id="g340"><g
             id="g342"><path
               d="m 492.409,179.083 c -2.186,-9.686 -8.421,-20.189 -10.289,-30.389 l 0,0 c -5.624,7.442 -6.808,15.966 -4.615,25.388 l 0,0 c 1.256,5.4 3.626,10.5 6.61,15.15 l 0,0 c 1.237,1.928 2.946,3.592 4.098,5.558 l 0,0 c 0.383,0.657 -0.081,1.217 -0.769,0.938 l 0,0 c -8.345,-3.368 -15.601,-6.432 -21.106,-13.893 l 0,0 c -4.578,-6.201 -6.682,-14.019 -6.746,-21.65 l 0,0 c -0.07,-8.126 2.859,-16.267 7.006,-23.153 l 0,0 c 2.291,-3.802 5.819,-6.726 9.14,-9.585 l 0,0 c 4.785,-4.12 9.576,-8.939 5.383,-14.971 l 0,0 c -1.767,5.114 -5.829,9.165 -10.318,12.102 l 0,0 c -2.877,1.884 -6.147,3.028 -8.981,5.026 l 0,0 c -1.78,1.255 -3.205,2.899 -4.25,4.8 l 0,0 c -1.085,1.972 -0.571,7.282 1.657,8.431 l 0,0 c 0.36,0.187 1.127,1.385 0.315,1.524 l 0,0 c -2.538,0.434 -5.275,-2.521 -6.421,-4.435 l 0,0 c -2.392,-3.999 -2.639,-8.412 -0.245,-12.451 l 0,0 c 2.576,-4.352 7.067,-7.217 9.705,-11.529 l 0,0 c 1.174,-1.922 0.944,-3.678 -0.761,-5.278 l 0,0 c -2.976,-2.79 -6.556,-1.533 -9.411,0.263 l 0,0 c -5.51,3.467 -5.638,10.632 -2.28,15.636 l 0,0 c 0.494,0.736 -0.325,1.365 -0.963,0.81 l 0,0 c -7.229,-6.264 -8.693,-14.679 -3.277,-22.598 l 0,0 c 6.776,-9.909 19.666,-12.411 30.877,-12.296 l 0,0 c 7.036,0.414 34.303,0.414 41.339,0 l 0,0 c 11.21,-0.115 24.099,2.387 30.878,12.296 l 0,0 c 5.414,7.919 3.951,16.334 -3.278,22.598 l 0,0 c -0.639,0.555 -1.459,-0.074 -0.965,-0.81 l 0,0 c 3.36,-5.004 3.23,-12.169 -2.278,-15.636 l 0,0 c -2.855,-1.796 -6.436,-3.053 -9.411,-0.263 l 0,0 c -1.706,1.6 -1.936,3.356 -0.761,5.278 l 0,0 c 2.637,4.312 7.127,7.177 9.704,11.529 l 0,0 c 2.392,4.039 2.148,8.452 -0.245,12.451 l 0,0 c -1.144,1.914 -3.884,4.869 -6.421,4.435 l 0,0 c -0.812,-0.139 -0.044,-1.337 0.317,-1.524 l 0,0 c 2.227,-1.149 2.739,-6.459 1.657,-8.431 l 0,0 c -1.045,-1.901 -2.472,-3.545 -4.251,-4.8 l 0,0 c -2.834,-1.998 -6.104,-3.142 -8.982,-5.026 l 0,0 c -4.488,-2.937 -8.55,-6.986 -10.318,-12.102 l 0,0 c -4.193,6.032 0.599,10.851 5.382,14.971 l 0,0 c 3.321,2.859 6.85,5.783 9.142,9.585 l 0,0 c 4.148,6.886 7.075,15.027 7.006,23.153 l 0,0 c -0.065,7.631 -2.17,15.449 -6.747,21.65 l 0,0 c -5.505,7.461 -12.76,10.525 -21.104,13.893 l 0,0 c -0.689,0.279 -1.155,-0.281 -0.771,-0.938 l 0,0 c 1.151,-1.966 2.862,-3.63 4.099,-5.558 l 0,0 c 2.982,-4.65 5.353,-9.75 6.61,-15.15 l 0,0 c 2.13,-9.152 1.064,-17.452 -4.15,-24.741 l 0,0 c -1.674,7.881 -4.446,21.776 -4.671,23.557 l 0,0 c -2.373,19.023 -8.77,31.716 -22.565,37.162 l 0,0 c 5.139,-11.506 9.648,-16.725 6.425,-30.977"
               style="fill:url(#linearGradient344);stroke:none"
               id="path350"
               inkscape:connector-curvature="0" /></g></g></g></g><g
       id="g352"><g
         id="g354"
         clip-path="url(#clipPath356)"><g
           id="g360"><g
             id="g362"><path
               d="m 473.215,374.853 c -0.265,-1.102 -0.565,-2.192 -0.848,-3.309 l 0,0 c -2.453,-11.658 -1.379,-24.566 4.862,-35.147 l 0,0 c 0.451,-0.802 0.9,-1.634 1.325,-2.49 l 0,0 c 0.852,-1.711 1.595,-3.502 2.14,-5.439 l 0,0 c 0.399,-0.78 0.75,-1.611 1.045,-2.481 l 0,0 c 2.076,-6.086 1.487,-13.969 -3.22,-17.734 l 0,0 c 1.614,3.228 1.871,6.744 1.222,10.27 l 0,0 c -0.217,1.175 -0.535,2.349 -0.935,3.502 l 0,0 c -0.877,3.281 -2.544,6.077 -4.568,8.644 l 0,0 c -0.675,0.855 -1.391,1.688 -2.128,2.5 l 0,0 c -5.425,5.203 -11.878,10.584 -11.878,19.187 l 0,0 c -3.228,-2.15 -4.302,-7.529 -2.254,-10.926 l 0,0 c 0.284,-1.075 0.625,-2.155 0.989,-3.228 l 0,0 c 2.55,-7.508 6.105,-14.621 2.341,-20.267 l 0,0 c -5.378,-8.606 -9.682,10.756 -16.136,16.136 l 0,0 c 1.076,-3.228 2.517,-6.66 2.403,-12.287 l 0,0 c -0.113,-5.627 -1.699,-11.31 -5.987,-17.516 l 0,0 c -9.712,-23.795 12.788,-37.045 26.913,-39.721 l 0,0 c 13.184,-2.499 26.332,-0.493 37.581,9.226 l 0,0 c 9.781,8.451 12.533,31.218 0.809,46.838 l 0,0 c -0.628,1.036 -1.264,2.058 -1.899,3.076 l 0,0 c -2.541,4.071 -5.095,8.087 -6.781,12.316 l 0,0 c -0.432,1.052 -0.844,2.099 -1.228,3.152 l 0,0 c -2.699,7.336 -4.149,14.917 -1.669,23.084 l 0,0 c 0.419,1.096 0.926,2.166 1.53,3.21 l 0,0 c 0.604,1.042 1.308,2.058 2.115,3.042 l 0,0 c -2.582,-0.967 -5.066,-2.515 -7.166,-4.471 l 0,0 c -0.697,-0.654 -1.353,-1.352 -1.956,-2.09 l 0,0 c -0.946,-1.048 -1.792,-2.373 -2.458,-3.853 l 0,0 c -0.334,-0.74 -0.623,-1.521 -0.853,-2.33 l 0,0 c -0.477,-4.467 -1.551,-8.769 1.676,-11.994 l 0,0 c -5.38,4.303 -4.304,10.753 -2.784,16.084 l 0,0 c 0.236,0.664 0.48,1.33 0.725,1.994 l 0,0 c 0.246,0.662 0.492,1.326 0.733,1.992 l 0,0 c 0.321,0.888 0.634,1.781 0.917,2.686 l 0,0 c 4.711,14.892 -4.971,33.179 -20.031,36.406 l 0,0 c 7.262,-7.26 7.867,-18.152 5.453,-28.062"
               style="fill:url(#linearGradient364);stroke:none"
               id="path370"
               inkscape:connector-curvature="0" /></g></g></g></g><g
       id="g372"><g
         id="g374"
         clip-path="url(#clipPath376)"><g
           id="g380"><g
             id="g382"><path
               d="m 690.211,713.752 c -2.712,-3.995 -7.074,-6.597 -8.969,-10.901 l 0,0 c -1.735,-4.066 -2.598,-8.824 0.796,-13.602 l 0,0 c 2.94,-4.139 6.776,-8.145 7.365,-13.574 l 0,0 c 0.714,-4.972 -12.069,-8.008 -14.069,-18.341 l 0,0 c -6.667,9 -18.792,12.271 -18.078,17.243 l 0,0 c 0.589,5.429 4.425,9.436 7.365,13.574 l 0,0 c -8.274,-5.446 -6.789,-4.643 -10.627,-5.789 l 0,0 c -3.429,-0.992 -6.78,2.777 -6.621,6.572 l 0,0 c -1.225,-4.49 0.565,-7.927 2.328,-11.788 l 0,0 c 3.171,-6.182 5.741,-10.155 5.234,-17.716 l 0,0 c -0.537,-7.771 -4.967,-12.707 -9.75,-17.744 l 0,0 c 0.926,2.41 1.577,4.887 1.965,7.623 l 0,0 c 0.522,3.674 -0.686,8.381 -3.407,11.636 l 0,0 c 1.735,-7.09 -2.287,-9.852 -3.94,-13.906 l 0,0 c -9.112,-22.322 14.583,-36.762 23.863,-36.286 l 0,0 c 2.836,-0.523 5.857,-0.81 8.997,-0.81 l 0,0 c 9.092,0 17.218,2.376 22.601,6.104 l 0,0 c 9.12,5.777 17.68,17.173 11.592,32.089 l 0,0 c -1.653,4.056 -5.675,6.817 -3.94,13.907 l 0,0 c -2.721,-3.255 -3.93,-7.962 -3.408,-11.636 l 0,0 c 0.39,-2.735 1.039,-5.212 1.966,-7.623 l 0,0 c -4.784,5.037 -9.213,9.973 -9.75,17.743 l 0,0 c -0.507,7.561 2.063,11.535 5.234,17.718 l 0,0 c 1.763,3.859 3.553,7.297 2.328,11.787 l 0,0 c 0.159,-3.795 -2.696,-6.539 -6.126,-5.547 l 0,0 c -3.837,1.146 -5.062,5.635 -5.379,9.195 l 0,0 c -0.668,7.325 3.82,13.759 6.312,20.629 l 0,0 c 1.348,3.713 2.848,7.831 0.429,12.15 l 0,0 c 1.248,-6.248 -2.984,-10.865 -4.311,-12.707"
               style="fill:url(#linearGradient384);stroke:none"
               id="path390"
               inkscape:connector-curvature="0" /></g></g></g></g><g
       id="g392"><g
         id="g394"
         clip-path="url(#clipPath396)"><g
           id="g400"><g
             id="g402"><path
               d="m 292.452,538.425 c -6.546,-6.565 -7.715,-13.861 -3.143,-21.137 l 0,0 c 4.217,-7.277 3.029,-10.408 2.614,-19.156 l 0,0 c -1.407,5.164 -8.426,7.687 -15.048,10.273 l 0,0 c -5.583,2.183 -13.818,2.702 -19.899,1.527 l 0,0 c 5.977,-0.704 11.118,-4.207 12.731,-7.033 l 0,0 c 3.253,-5.703 1.008,-11.708 -4.233,-18.167 l 0,0 c -4.794,-5.911 -6.767,-14.181 3.427,-19.11 l 0,0 c -8.264,2.154 -14.384,11.685 -7.356,17.788 l 0,0 c -4.569,-3.286 -7.913,-6.338 -8.968,-11.032 l 0,0 c -3.11,-14.54 15.423,-33.962 42.257,-31.251 l 0,0 c -7.9,6.03 -14.417,13.873 -14.584,21.373 l 0,0 c -0.166,7.5 1.591,11.375 4.242,15.392 l 0,0 c 2.978,4.518 2.317,9.851 -3.092,12.306 l 0,0 c 10.032,-0.66 14.113,-8.837 13.69,-14.57 l 0,0 c 1.491,1.235 6.302,4.199 5.736,11.248 l 0,0 c -0.666,8.3 -6.324,21.15 2.387,27.171 l 0,0 c -8.559,-8.891 5.939,-19.169 11.874,-23.51 l 0,0 c 5.651,-4.153 12.324,-16.048 9.656,-27.648 l 0,0 c -1.215,-5.283 -7.245,-13.974 -15.261,-20.174 l 0,0 c 9.446,3.329 18.67,9.034 23.399,16.245 l 0,0 c 5.589,8.519 7.145,19.839 4.646,27.108 l 0,0 c -2.96,8.609 -6.202,15.511 -12.49,20.897 l 0,0 c -9.7,8.304 -13.112,9.134 -19.355,17.868 l 0,0 c -8.463,11.842 -1.613,19.428 2.619,23.684 l 0,0 c -5.976,-1.877 -12.091,-6.324 -15.849,-10.092"
               style="fill:url(#linearGradient404);stroke:none"
               id="path410"
               inkscape:connector-curvature="0" /></g></g></g></g><g
       id="g412"><g
         id="g414"
         clip-path="url(#clipPath416)"><g
           id="g420"><g
             id="g422"><path
               d="m 299.324,717.18 c -3.579,-3.15 -6.385,-8.439 -7.607,-13.032 l 0,0 c -1.075,-4.134 -1.228,-8.323 -0.923,-12.608 l 0,0 c 0.307,-3.98 1.224,-7.907 0.307,-12.652 l 0,0 c -1.852,-9.59 -8.14,-15.516 -12.257,-24.512 l 0,0 c -3.827,-8.352 -5.223,-19.201 -1.367,-27.848 l 0,0 c 8.112,-18.207 23.869,-19.227 24.573,-19.368 l 0,0 0.522,0 c 9.341,1.226 17.006,5.434 23.286,12.631 l 0,0 c 5.969,6.737 8.954,14.538 9.414,23.569 l 0,0 c 0.307,10.412 -4.136,20.676 -10.107,29.096 l 0,0 c -0.035,0.05 -0.068,0.096 -0.101,0.144 l 0,0 c 0.029,0.055 0.047,0.107 0.078,0.162 l 0,0 c -0.05,-0.02 -0.095,-0.045 -0.146,-0.066 l 0,0 c -2.155,3.103 -4.299,5.86 -6.392,8.606 l 0,0 c 5.47,14.961 10.102,29.378 0.037,43.173 l 0,0 c 4.222,-8.988 -1.043,-21.673 -5.58,-27.535 l 0,0 c -0.876,-1.135 -1.795,-2.268 -2.74,-3.405 l 0,0 c -0.546,0.98 -1.085,1.989 -1.613,3.056 l 0,0 c -4.009,8.099 -4.048,19.657 2.624,27.968 l 0,0 c -4.919,-1.732 -8.233,-4.051 -12.008,-7.379 m -3.913,-95.654 c -3.112,13.782 1.066,27.851 12.886,38.573 l 0,0 c -3.213,-3.556 -0.777,-10.907 0.673,-14.732 l 0,0 c 2.848,-7.531 6.556,-13.576 4.034,-21.724 l 0,0 c -1.643,-5.324 -6.228,-10.754 -11.809,-12.868 l 0,0 -0.589,-0.362 c -2.834,4.173 -4.694,8.899 -5.195,11.113"
               style="fill:url(#linearGradient424);stroke:none"
               id="path430"
               inkscape:connector-curvature="0" /></g></g></g></g><g
       id="g432"><g
         id="g434"
         clip-path="url(#clipPath436)"><g
           id="g440"><g
             id="g442"><path
               d="m 119.234,390.23 c 5.006,-1.964 5.345,-7.27 -5.183,-15.046 l 0,0 c -10.529,-7.776 -13.068,-26.239 -10.321,-37.906 l 0,0 c 0,0 -7.413,0.429 -6.954,10.541 l 0,0 c -3.758,-1.466 -12.609,-15.275 1.334,-29.945 l 0,0 c -7.611,-2.389 -17.951,9.605 -19.008,21.119 l 0,0 C 68.847,325.79 73.259,315.642 82.99,301.241 l 0,0 c -3.554,-1.389 -5.794,0.467 -9.063,3.354 l 0,0 c -0.52,-11.152 21.637,-36.672 41.521,-37.325 l 0,0 c -19.854,13.08 -20.981,21.053 -20.273,25.393 l 0,0 c 0.837,-3.856 7.803,-5.107 9.149,-4.22 l 0,0 c -6.961,7.778 -2.575,15.88 -0.205,20.192 l 0,0 c -1.846,-6.618 2.484,-10.296 6.482,-13.597 l 0,0 c 3.995,4.636 4.435,15.01 -0.13,25.343 l 0,0 c 10.638,-3.845 14.274,-18.789 12.702,-24.023 l 0,0 c -1.57,-5.232 -0.345,-6.214 3.888,-2.506 l 0,0 c 4.235,3.706 8.038,14.915 8.038,14.915 l 0,0 c 0,0 0.897,-9.105 -1.299,-17.847 l 0,0 c 5.058,3.345 7.531,3.706 11.408,2.667 l 0,0 c -4.422,-3.872 -5.069,-11.019 -8.526,-14.072 l 0,0 c 0,0 2.649,-1.652 8.651,2.108 l 0,0 c 0.765,-5.088 -12.179,-14.302 -12.179,-14.302 l 0,0 c 0,0 2.066,-0.854 11.406,4.486 l 0,0 c 12.407,6.381 15.261,37.338 21.202,39.519 l 0,0 c -5.819,5.578 -11.518,-1.818 -15.627,-2.164 l 0,0 c -2.972,3.277 0.289,13.763 8.036,23.627 l 0,0 c 0,0 -9.14,2.664 -18.961,-13.339 l 0,0 c -6.303,7.404 -0.923,26.892 5.481,35.515 l 0,0 c -4.328,0.035 -10.876,-3.028 -16.851,-9.108 l 0,0 c -5.975,-6.08 -5.374,5.75 -0.691,19.823 l 0,0 c 4.551,13.672 -1.083,24.578 -7.362,24.578 l 0,0 c -0.184,0 -0.369,-0.009 -0.553,-0.028"
               style="fill:url(#linearGradient444);stroke:none"
               id="path450"
               inkscape:connector-curvature="0" /></g></g></g></g></g></svg>